<?xml version="1.0" standalone="no"?>
<!DOCTYPE svg PUBLIC "-//W3C//DTD SVG 20010904//EN"
 "http://www.w3.org/TR/2001/REC-SVG-20010904/DTD/svg10.dtd">
<svg version="1.0" xmlns="http://www.w3.org/2000/svg"
 width="502.000000pt" height="171.000000pt" viewBox="0 0 502.000000 171.000000"
 preserveAspectRatio="xMidYMid meet">

<g transform="translate(0.000000,171.000000) scale(0.100000,-0.100000)"
fill="#000000" stroke="none">
<path d="M829 1545 c-4 -3 -24 -7 -45 -9 -22 -2 -45 -4 -51 -5 -8 0 -13 -17
-13 -42 l0 -40 38 23 c71 42 85 54 81 67 -3 7 -7 10 -10 6z"/>
<path d="M791 1351 c-13 -13 -25 -20 -29 -17 -3 3 -14 -1 -24 -11 -13 -11 -18
-30 -18 -65 0 -27 3 -48 8 -46 4 2 34 18 67 37 57 32 61 37 62 73 2 27 -2 38
-13 38 -7 0 -14 -6 -15 -12 0 -7 -4 -4 -8 6 -7 19 -8 19 -30 -3z"/>
<path d="M869 1320 c-21 -14 -2 -24 23 -13 17 7 19 11 6 15 -8 4 -21 2 -29 -2z"/>
<path d="M4738 1237 c-20 -45 -72 -164 -117 -265 l-80 -183 35 3 c34 3 37 6
66 76 l30 73 106 -3 106 -3 30 -72 c29 -71 31 -73 64 -73 23 0 33 4 29 13 -20
50 -221 504 -226 509 -4 4 -23 -29 -43 -75z m81 -149 c17 -42 31 -79 31 -82 0
-3 -34 -6 -76 -6 -42 0 -74 4 -72 8 49 120 73 171 78 165 4 -5 21 -43 39 -85z"/>
<path d="M453 1275 c0 -22 2 -30 4 -17 2 12 2 30 0 40 -3 9 -5 -1 -4 -23z"/>
<path d="M2148 1296 c-114 -31 -184 -129 -182 -256 1 -75 18 -121 64 -174 52
-58 102 -80 190 -80 59 -1 84 4 118 22 39 21 42 25 42 63 l0 40 -33 -25 c-45
-34 -123 -51 -176 -36 -159 43 -192 268 -53 365 36 25 53 30 100 29 56 -1 108
-19 145 -52 16 -14 17 -12 17 25 0 35 -4 42 -37 60 -50 28 -135 36 -195 19z"/>
<path d="M3194 1050 l-30 -260 31 0 31 0 18 168 c10 92 19 168 20 169 2 2 120
-204 145 -254 7 -13 16 -23 20 -23 5 0 44 64 87 141 62 111 80 137 83 118 2
-13 11 -89 20 -169 l16 -145 31 -3 30 -3 -17 148 c-10 81 -23 199 -30 261 -7
61 -15 112 -18 112 -3 0 -49 -79 -101 -175 -52 -96 -97 -175 -100 -175 -3 0
-48 79 -100 175 -52 96 -98 175 -101 175 -3 0 -19 -117 -35 -260z"/>
<path d="M2490 1045 l0 -255 30 0 30 0 0 125 0 126 143 -3 142 -3 3 -122 3
-123 29 0 30 0 0 255 0 255 -30 0 -30 0 0 -100 0 -100 -145 0 -145 0 0 100 0
100 -30 0 -30 0 0 -255z"/>
<path d="M3010 1046 l0 -256 35 0 35 0 -2 253 -3 252 -32 3 -33 3 0 -255z"/>
<path d="M3780 1045 l0 -255 150 0 151 0 -4 28 -4 27 -111 3 -110 3 -4 82 c-2
45 -2 88 0 95 3 8 34 12 108 12 l104 0 0 30 0 30 -105 0 -105 0 0 70 0 69 113
3 112 3 0 25 0 25 -148 3 -147 3 0 -256z"/>
<path d="M4190 1045 l0 -255 30 0 30 0 0 100 0 100 33 0 c29 0 37 -8 100 -100
64 -94 70 -100 103 -100 19 0 34 2 34 5 0 3 -31 48 -70 101 l-70 97 44 27 c76
49 97 148 44 215 -36 46 -92 65 -190 65 l-88 0 0 -255z m180 192 c21 -7 42
-25 53 -45 17 -29 18 -39 8 -73 -15 -49 -51 -69 -126 -69 l-55 0 0 100 0 100
43 -1 c23 0 58 -5 77 -12z"/>
<path d="M1320 1258 c-19 -12 -37 -23 -39 -25 -8 -6 34 -32 51 -33 9 0 18 -5
20 -12 6 -18 118 -19 136 -1 8 7 13 15 11 17 -13 10 -131 76 -137 76 -4 0 -23
-10 -42 -22z"/>
<path d="M197 1240 c-3 -13 -9 -21 -13 -17 -4 4 -14 -11 -21 -34 -16 -47 -12
-54 46 -87 l41 -23 0 60 c0 34 -4 61 -10 61 -5 0 -16 15 -23 32 -13 32 -13 33
-20 8z"/>
<path d="M452 1193 c-2 -35 -32 -49 -32 -15 0 12 -8 17 -25 17 -25 0 -25 0
-25 -95 l0 -95 42 -23 c23 -12 43 -20 45 -18 2 2 2 61 0 132 -1 71 -4 114 -5
97z"/>
<path d="M577 1060 c-3 -83 -4 -156 -1 -163 4 -11 75 -57 88 -57 4 0 6 63 6
140 0 127 -2 140 -17 140 -15 0 -15 2 -4 9 11 7 6 13 -23 25 -21 9 -35 19 -32
24 2 4 1 14 -3 21 -4 6 -11 -56 -14 -139z"/>
<path d="M920 1180 c0 -5 5 -10 10 -10 6 0 10 5 10 10 0 6 -4 10 -10 10 -5 0
-10 -4 -10 -10z"/>
<path d="M880 1165 c-1 -5 -2 -14 -1 -19 1 -5 -5 -6 -12 -3 -8 3 -43 -11 -78
-31 l-64 -37 -3 -53 c-2 -28 -1 -52 2 -52 6 0 12 4 161 88 123 70 127 73 88
69 -20 -2 -34 2 -37 10 -3 7 -14 13 -25 13 -11 0 -22 6 -24 13 -3 6 -6 8 -7 2z"/>
<path d="M1108 1137 c-21 -12 -38 -25 -38 -29 0 -12 149 -90 160 -83 5 3 10
-1 10 -9 0 -9 5 -16 10 -16 6 0 10 4 10 9 0 17 29 20 44 5 21 -21 21 -21 39
-5 31 25 30 25 -120 114 -33 20 -65 37 -70 37 -4 -1 -25 -11 -45 -23z"/>
<path d="M897 1013 l-47 -26 103 -60 c97 -56 191 -96 230 -97 9 0 17 -7 17
-15 0 -12 4 -13 25 -3 15 7 24 17 21 25 -3 8 -2 11 3 8 5 -3 12 -1 15 4 3 5
-11 16 -32 25 -20 9 -77 41 -127 72 -49 30 -106 63 -125 74 l-36 18 -47 -25z"/>
<path d="M340 940 c0 -5 5 -10 10 -10 6 0 10 5 10 10 0 6 -4 10 -10 10 -5 0
-10 -4 -10 -10z"/>
<path d="M406 911 c-4 -5 0 -11 6 -14 9 -3 7 -7 -6 -12 -11 -5 -21 -3 -27 6
-7 11 -9 11 -9 -3 0 -9 -8 -18 -17 -20 -10 -2 38 -35 117 -80 74 -43 147 -86
162 -95 27 -17 29 -17 73 7 25 14 45 27 45 30 0 6 -239 144 -259 149 -8 1 -23
12 -34 22 -22 21 -42 24 -51 10z"/>
<path d="M290 900 c0 -5 9 -10 20 -10 11 0 20 5 20 10 0 6 -9 10 -20 10 -11 0
-20 -4 -20 -10z"/>
<path d="M940 725 c0 -114 3 -155 12 -155 9 0 9 -3 0 -12 -7 -7 -12 -21 -12
-32 0 -16 3 -17 12 -8 17 17 49 15 64 -5 12 -15 13 8 11 150 l-2 169 -42 24
-43 24 0 -155z"/>
<path d="M1260 830 c0 -13 11 -13 30 0 12 8 11 10 -7 10 -13 0 -23 -4 -23 -10z"/>
<path d="M1310 810 c0 -5 5 -10 11 -10 5 0 7 5 4 10 -3 6 -8 10 -11 10 -2 0
-4 -4 -4 -10z"/>
<path d="M1151 627 c1 -73 3 -124 6 -114 5 18 23 24 23 7 0 -5 9 -10 20 -10
11 0 20 -4 20 -10 0 -5 5 -10 10 -10 6 0 10 43 10 109 l0 109 -45 25 -45 26 1
-132z"/>
<path d="M864 739 c-3 -6 -21 -18 -38 -26 -61 -29 -126 -69 -121 -76 3 -4 2
-5 -1 -2 -6 4 -44 -15 -108 -53 -16 -10 -32 -24 -34 -31 -3 -10 0 -11 9 -5 8
5 16 9 19 9 25 4 49 18 44 27 -5 7 -1 9 9 5 10 -4 28 -2 41 3 27 10 43 -9 23
-29 -8 -8 -8 -11 2 -11 7 0 19 7 27 15 9 8 23 15 33 15 9 0 26 8 37 18 10 10
34 24 52 31 30 13 32 16 32 67 0 51 -10 68 -26 43z"/>
<path d="M322 713 c3 -15 -4 -17 -41 -15 -49 4 -53 -11 -8 -38 14 -8 58 -34
98 -57 39 -24 75 -43 80 -43 5 0 27 10 49 21 49 26 45 32 -40 77 -30 16 -71
38 -90 50 -42 27 -52 27 -48 5z"/>
<path d="M190 710 c0 -5 5 -10 11 -10 5 0 7 5 4 10 -3 6 -8 10 -11 10 -2 0 -4
-4 -4 -10z"/>
<path d="M1360 566 l0 -64 38 3 c20 1 40 -2 44 -9 4 -6 8 12 8 39 0 53 -8 63
-66 85 -24 9 -24 9 -24 -54z"/>
<path d="M2380 520 c0 -60 4 -100 10 -100 6 0 10 40 10 100 0 60 -4 100 -10
100 -6 0 -10 -40 -10 -100z"/>
<path d="M3920 520 c0 -60 4 -100 10 -100 6 0 10 40 10 100 0 60 -4 100 -10
100 -6 0 -10 -40 -10 -100z"/>
<path d="M4070 571 c0 -50 0 -50 -25 -39 -35 16 -75 -12 -75 -52 0 -42 23 -60
75 -58 l45 2 0 93 c0 50 -4 95 -10 98 -6 4 -10 -13 -10 -44z m-8 -76 c10 -22
9 -29 -9 -46 -17 -17 -24 -19 -42 -10 -12 7 -21 22 -21 34 0 49 53 64 72 22z"/>
<path d="M4900 520 c0 -102 16 -140 22 -52 3 40 6 47 26 50 20 3 22 0 22 -47
0 -28 5 -51 10 -51 6 0 10 22 10 49 0 54 -17 77 -50 66 -18 -6 -20 -2 -20 39
0 25 -4 46 -10 46 -6 0 -10 -40 -10 -100z"/>
<path d="M2040 510 l0 -90 38 0 c62 0 95 53 52 83 -18 13 -19 16 -5 27 8 7 15
18 15 26 0 19 -40 44 -72 44 l-28 0 0 -90z m70 55 c16 -19 4 -35 -26 -35 -19
0 -24 5 -24 25 0 29 29 35 50 10z m4 -71 c9 -8 16 -19 16 -23 0 -15 -25 -31
-47 -31 -20 0 -23 5 -23 35 0 28 4 35 19 35 11 0 27 -7 35 -16z"/>
<path d="M2320 585 c0 -8 5 -15 10 -15 6 0 10 7 10 15 0 8 -4 15 -10 15 -5 0
-10 -7 -10 -15z"/>
<path d="M2920 590 c0 -5 9 -10 20 -10 18 0 20 -7 20 -80 0 -47 4 -80 10 -80
6 0 10 33 10 80 0 79 0 80 25 80 14 0 25 5 25 10 0 6 -25 10 -55 10 -30 0 -55
-4 -55 -10z"/>
<path d="M3580 510 l0 -90 38 0 c21 0 43 5 50 12 17 17 15 65 -4 76 -11 6 -13
11 -5 16 18 12 13 54 -8 66 -11 5 -31 10 -45 10 -26 0 -26 0 -26 -90z m68 44
c2 -14 -3 -23 -17 -27 -25 -6 -31 0 -31 30 0 20 5 24 23 21 13 -2 23 -11 25
-24z m0 -53 c8 -4 12 -19 10 -32 -2 -18 -10 -25 -30 -27 -26 -3 -28 -1 -28 32
0 37 17 47 48 27z"/>
<path d="M3856 591 c-4 -5 -2 -12 3 -15 5 -4 12 -2 15 3 4 5 2 12 -3 15 -5 4
-12 2 -15 -3z"/>
<path d="M4127 594 c-8 -8 1 -24 14 -24 5 0 9 7 9 15 0 15 -12 20 -23 9z"/>
<path d="M4530 590 c0 -5 11 -10 25 -10 25 0 25 -1 25 -80 0 -47 4 -80 10 -80
6 0 10 33 10 80 0 79 0 80 26 80 14 0 23 4 19 10 -3 6 -31 10 -61 10 -30 0
-54 -4 -54 -10z"/>
<path d="M2440 562 c0 -10 -5 -23 -12 -30 -9 -9 -9 -12 0 -12 8 0 12 -18 12
-50 0 -27 5 -50 10 -50 6 0 10 22 10 49 0 30 5 52 13 55 10 5 10 7 0 12 -7 3
-13 14 -13 25 0 10 -4 19 -10 19 -5 0 -10 -8 -10 -18z"/>
<path d="M3360 561 c0 -11 -6 -22 -12 -25 -10 -5 -10 -7 0 -12 7 -3 12 -25 12
-55 0 -27 5 -49 10 -49 6 0 10 23 10 50 0 28 4 50 9 50 5 0 3 14 -5 30 -18 35
-24 38 -24 11z"/>
<path d="M2180 491 c0 -57 13 -71 63 -69 l37 1 0 53 c0 29 -4 56 -10 59 -6 4
-10 -10 -10 -34 0 -47 -24 -78 -46 -60 -8 7 -14 30 -14 55 0 24 -4 44 -10 44
-5 0 -10 -22 -10 -49z"/>
<path d="M2320 480 c0 -33 4 -60 10 -60 6 0 10 27 10 60 0 33 -4 60 -10 60 -6
0 -10 -27 -10 -60z"/>
<path d="M2590 520 c-25 -25 -26 -62 -2 -83 39 -35 102 -9 102 41 0 28 -34 62
-60 62 -11 0 -29 -9 -40 -20z m68 -12 c34 -34 -6 -90 -48 -68 -35 19 -20 80
20 80 9 0 21 -5 28 -12z"/>
<path d="M2727 534 c-11 -11 -9 -114 2 -114 6 0 11 21 13 47 2 37 7 49 22 51
24 5 36 -14 36 -60 0 -21 5 -38 10 -38 18 0 11 77 -9 101 -17 21 -23 22 -40
12 -13 -8 -21 -9 -23 -2 -2 6 -7 7 -11 3z"/>
<path d="M3030 478 c0 -32 4 -58 10 -58 6 0 10 21 10 46 0 37 4 47 20 51 30 8
24 22 -10 21 -30 -1 -30 -1 -30 -60z"/>
<path d="M3120 493 c0 -62 8 -73 53 -71 l37 1 0 59 c0 37 -4 57 -10 53 -5 -3
-10 -26 -10 -50 0 -42 -11 -57 -37 -48 -8 3 -13 22 -13 48 0 24 -4 47 -10 50
-6 4 -10 -12 -10 -42z"/>
<path d="M3263 533 c-24 -9 -14 -42 17 -58 17 -9 30 -20 30 -25 0 -15 -21 -23
-33 -11 -6 6 -17 11 -25 11 -12 0 -12 -3 -2 -15 17 -20 66 -19 74 1 10 27 7
33 -24 49 -40 21 -39 38 3 30 30 -6 31 -5 13 10 -20 15 -32 17 -53 8z"/>
<path d="M3722 483 l3 -58 43 -1 42 -2 0 60 c0 37 -4 57 -10 53 -5 -3 -10 -26
-10 -50 0 -42 -11 -57 -37 -48 -8 3 -13 22 -13 48 0 24 -5 47 -11 50 -7 5 -9
-13 -7 -52z"/>
<path d="M3860 481 c0 -34 4 -61 10 -61 6 0 10 24 10 54 0 30 -4 58 -10 61 -6
4 -10 -17 -10 -54z"/>
<path d="M4130 480 c0 -33 4 -60 10 -60 6 0 10 27 10 60 0 33 -4 60 -10 60 -6
0 -10 -27 -10 -60z"/>
<path d="M4195 532 c-9 -10 -5 -112 4 -112 6 0 11 21 13 47 2 37 7 49 22 51
24 5 36 -14 36 -60 0 -21 5 -38 10 -38 13 0 13 80 0 100 -8 13 -74 23 -85 12z"/>
<path d="M4336 521 c-20 -22 -21 -75 -1 -91 9 -8 29 -10 49 -7 32 5 34 4 27
-16 -10 -27 -58 -36 -67 -13 -7 17 -24 22 -24 7 0 -18 31 -41 55 -41 42 0 55
25 55 103 l0 72 -39 2 c-26 2 -44 -3 -55 -16z m58 -7 c22 -9 21 -61 -2 -73
-26 -14 -52 5 -52 39 0 34 21 47 54 34z"/>
<path d="M4659 530 c-44 -26 -24 -110 25 -110 32 0 56 10 56 22 0 6 -7 7 -15
4 -8 -3 -21 -9 -29 -12 -7 -3 -22 3 -32 13 -17 17 -16 18 32 23 42 4 49 8 46
25 -6 38 -48 55 -83 35z m59 -27 c2 -9 -8 -13 -33 -13 -33 0 -36 2 -25 15 15
18 51 16 58 -2z"/>
<path d="M4781 513 c-21 -26 -21 -53 1 -80 13 -16 74 -17 84 -2 5 8 -1 10 -20
7 -17 -4 -35 1 -49 12 -19 16 -20 21 -9 45 11 24 17 27 48 22 30 -5 34 -4 24
8 -19 23 -56 18 -79 -12z"/>
<path d="M229 520 c-9 -5 -35 -8 -57 -6 -23 2 -44 1 -47 -2 -7 -8 96 -72 115
-71 21 0 91 44 83 52 -3 4 -15 7 -25 7 -11 0 -17 4 -14 9 3 5 -1 12 -10 15
-20 8 -26 7 -45 -4z"/>
<path d="M833 477 c-29 -17 -53 -38 -53 -47 0 -12 -2 -12 -9 -1 -7 11 -13 9
-30 -8 -11 -11 -33 -24 -48 -27 -25 -7 -25 -8 -8 -15 18 -7 17 -8 -5 -9 -23
-1 -23 -2 -5 -10 13 -5 25 -3 35 5 11 10 20 11 35 3 18 -10 19 -10 6 5 -8 10
-9 17 -3 17 6 0 14 -9 17 -21 5 -14 10 -17 19 -10 6 6 21 9 31 9 11 -1 32 6
48 16 24 16 27 24 27 72 0 30 -1 54 -2 53 -2 0 -27 -15 -55 -32z"/>
<path d="M3426 418 c-3 -13 -6 -27 -6 -33 1 -15 30 27 30 42 0 22 -17 15 -24
-9z"/>
<path d="M1021 414 c0 -11 3 -14 6 -6 3 7 2 16 -1 19 -3 4 -6 -2 -5 -13z"/>
<path d="M745 330 c-3 -5 -2 -10 4 -10 5 0 13 5 16 10 3 6 2 10 -4 10 -5 0
-13 -4 -16 -10z"/>
<path d="M833 234 c-38 -23 -42 -29 -36 -52 9 -37 25 -45 38 -19 11 24 37 35
33 15 -2 -7 -10 -18 -18 -25 -23 -18 -7 -25 18 -7 18 12 22 25 22 65 0 27 -3
49 -7 49 -5 -1 -27 -12 -50 -26z"/>
</g>
</svg>
