<?xml version="1.0" standalone="no"?>
<!DOCTYPE svg PUBLIC "-//W3C//DTD SVG 20010904//EN"
 "http://www.w3.org/TR/2001/REC-SVG-20010904/DTD/svg10.dtd">
<svg version="1.0" xmlns="http://www.w3.org/2000/svg"
 width="388.000000pt" height="96.000000pt" viewBox="0 0 388.000000 96.000000"
 preserveAspectRatio="xMidYMid meet">

<g transform="translate(0.000000,96.000000) scale(0.100000,-0.100000)"
fill="#000000" stroke="none">
<path d="M810 810 c-26 -26 -26 -81 -2 -103 29 -27 88 -22 108 8 20 31 11 90
-16 105 -30 16 -68 12 -90 -10z"/>
<path d="M520 808 c-41 -11 -80 -45 -80 -68 0 -9 51 -66 114 -127 161 -158
162 -166 5 -334 -61 -66 -99 -115 -97 -125 6 -33 55 -58 114 -58 l56 -1 149
153 149 153 0 57 0 57 -147 142 c-102 99 -159 146 -183 153 -19 5 -37 10 -40
9 -3 0 -21 -5 -40 -11z"/>
<path d="M140 500 c0 -107 3 -232 7 -278 5 -75 9 -87 35 -113 33 -33 81 -39
126 -15 15 8 62 53 104 100 70 78 77 89 68 112 -20 52 -77 122 -207 254 l-132
135 -1 -195z"/>
<path d="M1360 410 l0 -170 25 0 25 0 0 170 0 170 -25 0 -25 0 0 -170z"/>
<path d="M2870 410 l0 -170 25 0 c16 0 25 6 25 15 0 8 5 15 10 15 6 0 10 -4
10 -8 0 -5 11 -14 25 -20 85 -39 169 25 167 126 0 48 -19 83 -59 109 -34 22
-98 21 -123 -2 -20 -18 -20 -17 -20 43 l0 62 -30 0 -30 0 0 -170z m183 13 c23
-27 30 -68 16 -95 -27 -51 -69 -61 -113 -27 -33 26 -37 88 -6 119 25 25 81 26
103 3z"/>
<path d="M2408 563 c-13 -3 -18 -15 -18 -39 0 -30 -3 -34 -25 -34 -20 0 -25
-5 -25 -25 0 -20 5 -25 25 -25 24 0 25 -2 25 -71 0 -68 11 -106 34 -121 6 -4
30 -8 54 -8 35 0 42 3 42 20 0 14 -7 20 -23 20 -37 0 -47 19 -47 92 l0 68 35
0 c31 0 35 3 35 25 0 22 -4 25 -35 25 -34 0 -35 1 -35 40 0 40 -4 43 -42 33z"/>
<path d="M1130 487 c-48 -17 -80 -67 -80 -129 0 -41 5 -54 33 -84 55 -61 152
-57 198 7 l20 29 -34 0 c-19 0 -40 -7 -47 -15 -27 -33 -110 -3 -110 40 0 11
20 15 98 17 l97 3 -3 30 c-9 80 -92 130 -172 102z m98 -59 c6 -6 12 -17 12
-24 0 -11 -16 -14 -65 -14 -68 0 -77 6 -47 32 32 29 68 31 100 6z"/>
<path d="M1565 489 c-74 -21 -113 -107 -82 -182 35 -83 151 -103 211 -36 l30
34 -33 3 c-20 2 -40 -3 -50 -12 -25 -23 -64 -20 -89 7 -39 42 -30 47 78 47 95
0 100 1 100 21 0 31 -29 86 -54 102 -30 20 -76 27 -111 16z m79 -60 c14 -11
26 -25 26 -30 0 -5 -32 -9 -70 -9 -68 0 -70 1 -60 21 11 19 41 37 66 38 6 1
23 -8 38 -20z"/>
<path d="M2103 485 c-65 -28 -92 -118 -57 -191 30 -62 116 -84 168 -43 21 17
26 18 26 5 0 -11 9 -16 30 -16 l30 0 0 125 0 125 -30 0 c-24 0 -30 -4 -30 -22
l0 -21 -22 20 c-31 28 -76 35 -115 18z m109 -62 c38 -44 29 -110 -18 -132 -35
-16 -48 -14 -78 10 -33 26 -37 88 -6 119 25 25 81 27 102 3z"/>
<path d="M2655 493 c-34 -9 -72 -41 -85 -73 -20 -49 -8 -117 28 -153 56 -55
167 -43 202 22 10 19 8 21 -23 21 -19 0 -40 -7 -47 -15 -18 -21 -62 -19 -88 5
-44 42 -31 50 79 50 l101 0 -7 33 c-17 78 -89 128 -160 110z m89 -76 l18 -22
-67 -3 c-75 -3 -84 0 -64 24 31 38 80 38 113 1z"/>
<path d="M3275 489 c-48 -13 -86 -60 -92 -112 -17 -148 182 -206 247 -72 37
76 0 163 -78 185 -42 11 -37 11 -77 -1z m94 -75 c59 -74 -29 -172 -102 -114
-34 27 -38 89 -7 120 30 30 83 27 109 -6z"/>
<path d="M1750 488 c0 -2 22 -58 48 -124 46 -112 50 -119 78 -122 30 -3 31 -1
77 115 26 65 47 122 47 126 0 4 -13 7 -28 7 -27 0 -31 -6 -62 -87 l-33 -88
-33 85 c-30 79 -34 85 -63 88 -17 2 -31 2 -31 0z"/>
<path d="M3495 463 c10 -16 28 -43 41 -62 l23 -34 -28 -41 c-15 -23 -33 -51
-40 -63 -11 -22 -10 -23 22 -23 28 0 37 6 56 40 12 22 25 40 29 40 4 0 17 -18
30 -40 20 -35 27 -40 57 -40 l35 0 -40 65 -41 64 41 61 41 60 -34 0 c-29 0
-39 -6 -62 -41 l-27 -42 -27 42 c-22 35 -31 41 -60 41 l-33 0 17 -27z"/>
</g>
</svg>
