<?xml version="1.0" encoding="UTF-8"?>
<svg version="1.1" xmlns="http://www.w3.org/2000/svg" width="100" height="100">
<path d="M0 0 C33 0 66 0 100 0 C100 33 100 66 100 100 C67 100 34 100 0 100 C0 67 0 34 0 0 Z " fill="#FEFEFD" transform="translate(0,0)"/>
<path d="M0 0 C5.92299987 3.19841993 9.87282107 7.6184632 12 14 C12.58920574 21.06080981 12.74023833 27.05297455 9.01171875 33.21484375 C7.93402627 35.11640925 7.43863289 36.81732237 6.9375 38.9375 C6.628125 39.948125 6.31875 40.95875 6 42 C5.01 42.33 4.02 42.66 3 43 C3 43.66 3 44.32 3 45 C2.34 45 1.68 45 1 45 C1 47.64 1 50.28 1 53 C2.98 53.66 4.96 54.32 7 55 C7 57.64 7 60.28 7 63 C8.32 63.33 9.64 63.66 11 64 C11.33 65.65 11.66 67.3 12 69 C8.37 69 4.74 69 1 69 C0.67 69.66 0.34 70.32 0 71 C0 70.34 0 69.68 0 69 C-0.66 69 -1.32 69 -2 69 C-2.33 68.01 -2.66 67.02 -3 66 C-3.33 66.99 -3.66 67.98 -4 69 C-5.97909398 69.02686553 -7.95828971 69.04633375 -9.9375 69.0625 C-11.03964844 69.07410156 -12.14179687 69.08570312 -13.27734375 69.09765625 C-16 69 -16 69 -17 68 C-17.04063832 66.33382885 -17.042721 64.66611905 -17 63 C-17.99 63.495 -17.99 63.495 -19 64 C-19 65.65 -19 67.3 -19 69 C-23.62 69 -28.24 69 -33 69 C-32 65 -32 65 -31 64 C-31.66 63.67 -32.32 63.34 -33 63 C-33 60.03 -33 57.06 -33 54 C-29.37 54 -25.74 54 -22 54 C-22.66 52.68 -23.32 51.36 -24 50 C-23.01 49.505 -23.01 49.505 -22 49 C-22.66 48.34 -23.32 47.68 -24 47 C-23.625 44.875 -23.625 44.875 -23 43 C-22.34 43 -21.68 43 -21 43 C-22.051875 42.0409375 -22.051875 42.0409375 -23.125 41.0625 C-29.31889722 34.85090593 -33.00586012 28.51550068 -33.3125 19.6875 C-33.22860967 13.38523904 -30.65916522 9.08580771 -26.8125 4.25 C-18.41644918 -2.46684066 -10.16398639 -3.7644394 0 0 Z " fill="#FCFCF4" transform="translate(60,14)"/>
<path d="M0 0 C1.32 0 2.64 0 4 0 C3.98839844 0.56847656 3.97679688 1.13695312 3.96484375 1.72265625 C3.90776806 6.60670484 4.18043228 11.18503965 5 16 C8.3 16 11.6 16 15 16 C15 16.66 15 17.32 15 18 C14.34 18 13.68 18 13 18 C13 20.64 13 23.28 13 26 C14.98 26.66 16.96 27.32 19 28 C19 30.64 19 33.28 19 36 C20.32 36.33 21.64 36.66 23 37 C23.495 39.475 23.495 39.475 24 42 C20.37 42 16.74 42 13 42 C12.505 42.99 12.505 42.99 12 44 C12 43.34 12 42.68 12 42 C11.34 42 10.68 42 10 42 C9.67 41.01 9.34 40.02 9 39 C8.67 39.99 8.34 40.98 8 42 C6.02090602 42.02686553 4.04171029 42.04633375 2.0625 42.0625 C0.96035156 42.07410156 -0.14179687 42.08570313 -1.27734375 42.09765625 C-4 42 -4 42 -5 41 C-5.04063832 39.33382885 -5.042721 37.66611905 -5 36 C-5.99 36.495 -5.99 36.495 -7 37 C-7 38.65 -7 40.3 -7 42 C-11.62 42 -16.24 42 -21 42 C-20 38 -20 38 -19 37 C-19.66 36.67 -20.32 36.34 -21 36 C-21 33.03 -21 30.06 -21 27 C-17.37 27 -13.74 27 -10 27 C-10.66 25.68 -11.32 24.36 -12 23 C-11.34 22.67 -10.68 22.34 -10 22 C-10.66 21.34 -11.32 20.68 -12 20 C-11.625 17.875 -11.625 17.875 -11 16 C-10.34 16 -9.68 16 -9 16 C-8.67 15.34 -8.34 14.68 -8 14 C-5.525 14.99 -5.525 14.99 -3 16 C-3.33 15.13375 -3.66 14.2675 -4 13.375 C-4.98731341 10.04281725 -5.16420974 7.44840462 -5 4 C-4.360625 3.896875 -3.72125 3.79375 -3.0625 3.6875 C-2.381875 3.460625 -1.70125 3.23375 -1 3 C-0.67 2.01 -0.34 1.02 0 0 Z " fill="#F2F2EE" transform="translate(48,41)"/>
<path d="M0 0 C5.92299987 3.19841993 9.87282107 7.6184632 12 14 C12.63992764 21.6686411 12.89781402 28.71708989 8 35 C4.67527784 38.51757147 1.83742054 41.07707108 -3 42 C-3.56758667 36.28865909 -1.70958665 33.04238426 1 28.25 C4.24318838 22.15319753 6.62341642 17.03480447 5 10 C3.19291449 5.38189258 0.45411364 3.1098433 -4 1 C-9.64882658 0.2328754 -14.37058072 0.22816982 -19.5625 2.6875 C-23.44039041 6.36652424 -25.16940597 9.08427017 -25.625 14.4375 C-25.50105924 19.96525773 -23.15588397 24.19899631 -20.57641602 28.93579102 C-18.14659331 33.44938778 -17.10182162 36.90891916 -17 42 C-21.76945805 41.57916547 -24.80828664 39.41969289 -28 36 C-32.63021116 29.58217567 -33.93452337 22.77471524 -33 15 C-31.00444265 8.93741 -27.53561218 4.06582704 -21.9609375 0.80859375 C-14.36867142 -2.93535877 -8.03717389 -2.97673107 0 0 Z " fill="#F3D018" transform="translate(60,14)"/>
<path d="M0 0 C0.66 0 1.32 0 2 0 C2.66 3.63 3.32 7.26 4 11 C7.3 11 10.6 11 14 11 C14 11.66 14 12.32 14 13 C13.34 13 12.68 13 12 13 C12 15.64 12 18.28 12 21 C13.98 21.66 15.96 22.32 18 23 C18 25.64 18 28.28 18 31 C16.33388095 31.042721 14.66617115 31.04063832 13 31 C12 30 12 30 11.9375 26.9375 C11.958125 25.968125 11.97875 24.99875 12 24 C11.01 24 10.02 24 9 24 C9 24.66 9 25.32 9 26 C9.66 26.33 10.32 26.66 11 27 C10.34 27 9.68 27 9 27 C9 27.99 9 28.98 9 30 C9.66 30.33 10.32 30.66 11 31 C9.02 31 7.04 31 5 31 C4.9729957 29.54176788 4.95360213 28.08339325 4.9375 26.625 C4.92589844 25.81289062 4.91429687 25.00078125 4.90234375 24.1640625 C5 22 5 22 6 20 C5.01 19.67 4.02 19.34 3 19 C2.34 18.34 1.68 17.68 1 17 C1.375 14.375 1.375 14.375 2 12 C1.34 12 0.68 12 0 12 C0.4979837 15.73487777 0.87491756 17.81237635 3 21 C4.4783226 23.95664519 4.06032783 26.74229737 4 30 C3.01 30.33 2.02 30.66 1 31 C0.34 27.7 -0.32 24.4 -1 21 C-2.98 20.67 -4.96 20.34 -7 20 C-7 17.36 -7 14.72 -7 12 C-5.02 12 -3.04 12 -1 12 C-1.020625 10.7625 -1.04125 9.525 -1.0625 8.25 C-1.06766681 5.3359175 -0.93015558 2.79046673 0 0 Z " fill="#535252" transform="translate(49,46)"/>
<path d="M0 0 C5.28 0 10.56 0 16 0 C16 0.66 16 1.32 16 2 C15.34 2 14.68 2 14 2 C14 2.66 14 3.32 14 4 C14.66 4 15.32 4 16 4 C16.33 2.68 16.66 1.36 17 0 C18.32 0.33 19.64 0.66 21 1 C21 3.64 21 6.28 21 9 C23.64 9.33 26.28 9.66 29 10 C29 11.65 29 13.3 29 15 C27.02090602 15.02686553 25.04171029 15.04633375 23.0625 15.0625 C21.96035156 15.07410156 20.85820313 15.08570312 19.72265625 15.09765625 C17 15 17 15 16 14 C15.95936168 12.33382885 15.957279 10.66611905 16 9 C15.01 9.495 15.01 9.495 14 10 C14 11.65 14 13.3 14 15 C9.38 15 4.76 15 0 15 C1 11 1 11 2 10 C1.34 9.67 0.68 9.34 0 9 C0 6.03 0 3.06 0 0 Z " fill="#CECECE" transform="translate(27,68)"/>
<path d="M0 0 C0.33 0 0.66 0 1 0 C1.01417969 0.95261719 1.02835938 1.90523437 1.04296875 2.88671875 C1.02148479 10.38843324 1.02148479 10.38843324 4.3125 16.75 C5.199375 17.4925 6.08625 18.235 7 19 C9.40558881 23.66468343 11 27.72790298 11 33 C7.132613 32.46286292 4.92850623 31.57960217 2 29 C-2.87048642 21.64300209 -4.38344886 13.69267035 -3 5 C-1.53125 2.1171875 -1.53125 2.1171875 0 0 Z " fill="#F6CF10" transform="translate(32,23)"/>
<path d="M0 0 C2.11605613 1.22385587 4.02189725 2.55260775 6 4 C5.01 4.66 4.02 5.32 3 6 C2.21625 5.360625 1.4325 4.72125 0.625 4.0625 C-4.53297487 0.00980546 -9.61377949 0.39894395 -16 1 C-20.45411364 3.1098433 -23.19291449 5.38189258 -25 10 C-25.4506443 15.0572305 -25.3136362 20.07386423 -24 25 C-24.99 24.34 -25.98 23.68 -27 23 C-27.51171875 20.1796875 -27.51171875 20.1796875 -27.6875 16.875 C-27.78611328 15.23144531 -27.78611328 15.23144531 -27.88671875 13.5546875 C-27.92410156 12.71164063 -27.96148437 11.86859375 -28 11 C-31.25406301 15.88109451 -30.58555195 21.29255113 -30 27 C-28.93185895 29.93180137 -27.58395488 32.29194811 -26 35 C-26.33 35.66 -26.66 36.32 -27 37 C-32.66521915 28.57533832 -32.66521915 28.57533832 -33 24 C-33.061875 23.33226563 -33.12375 22.66453125 -33.1875 21.9765625 C-33.58736082 14.6541113 -31.31323536 9.90806731 -26.8125 4.25 C-18.41644918 -2.46684066 -10.16398639 -3.7644394 0 0 Z " fill="#EED039" transform="translate(60,14)"/>
<path d="M0 0 C2.64 0 5.28 0 8 0 C8 0.66 8 1.32 8 2 C7.34 2 6.68 2 6 2 C6 2.66 6 3.32 6 4 C6.66 4 7.32 4 8 4 C8.33 2.68 8.66 1.36 9 0 C10.32 0.33 11.64 0.66 13 1 C13 3.64 13 6.28 13 9 C15.64 9.33 18.28 9.66 21 10 C21 11.65 21 13.3 21 15 C19.02090602 15.02686553 17.04171029 15.04633375 15.0625 15.0625 C13.96035156 15.07410156 12.85820313 15.08570312 11.72265625 15.09765625 C9 15 9 15 8 14 C7.95936168 12.33382885 7.957279 10.66611905 8 9 C6.68 9 5.36 9 4 9 C4 6.69 4 4.38 4 2 C3.34 2 2.68 2 2 2 C2 4.31 2 6.62 2 9 C1.67 9 1.34 9 1 9 C0.67 6.03 0.34 3.06 0 0 Z " fill="#C7C7C6" transform="translate(35,68)"/>
<path d="M0 0 C1.65 0 3.3 0 5 0 C5 0.66 5 1.32 5 2 C4.34 2 3.68 2 3 2 C3 4.64 3 7.28 3 10 C4.98 10.66 6.96 11.32 9 12 C9 14.64 9 17.28 9 20 C7.33388095 20.042721 5.66617115 20.04063832 4 20 C3 19 3 19 2.9375 15.9375 C2.958125 14.968125 2.97875 13.99875 3 13 C2.01 13 1.02 13 0 13 C0 13.66 0 14.32 0 15 C0.66 15.33 1.32 15.66 2 16 C1.34 16 0.68 16 0 16 C0 16.99 0 17.98 0 19 C0.66 19.33 1.32 19.66 2 20 C0.02 20 -1.96 20 -4 20 C-4.18451025 10.58997722 -4.18451025 10.58997722 -3 6 C-2.67 6 -2.34 6 -2 6 C-1.34 4.02 -0.68 2.04 0 0 Z " fill="#939393" transform="translate(58,57)"/>
<path d="M0 0 C1.32 0 2.64 0 4 0 C3.67 1.65 3.34 3.3 3 5 C2.34 5 1.68 5 1 5 C0.67 8.96 0.34 12.92 0 17 C-0.99 17 -1.98 17 -3 17 C-3.33 17.99 -3.66 18.98 -4 20 C-4 19.01 -4 18.02 -4 17 C-4.66 17 -5.32 17 -6 17 C-6 19.64 -6 22.28 -6 25 C-7.65 25 -9.3 25 -11 25 C-11.33 24.34 -11.66 23.68 -12 23 C-11.34 22.67 -10.68 22.34 -10 22 C-10.66 21.34 -11.32 20.68 -12 20 C-11.625 17.875 -11.625 17.875 -11 16 C-10.34 16 -9.68 16 -9 16 C-8.67 15.34 -8.34 14.68 -8 14 C-5.525 14.99 -5.525 14.99 -3 16 C-3.33 15.13375 -3.66 14.2675 -4 13.375 C-4.98731341 10.04281725 -5.16420974 7.44840462 -5 4 C-4.360625 3.896875 -3.72125 3.79375 -3.0625 3.6875 C-2.381875 3.460625 -1.70125 3.23375 -1 3 C-0.67 2.01 -0.34 1.02 0 0 Z " fill="#D2D3D3" transform="translate(48,41)"/>
<path d="M0 0 C7.75 -0.125 7.75 -0.125 10 1 C10 3.64 10 6.28 10 9 C8.33388095 9.042721 6.66617115 9.04063832 5 9 C4 8 4 8 3.9375 4.9375 C3.958125 3.968125 3.97875 2.99875 4 2 C3.01 2 2.02 2 1 2 C1 2.66 1 3.32 1 4 C1.66 4.33 2.32 4.66 3 5 C2.34 5 1.68 5 1 5 C1 5.99 1 6.98 1 8 C1.66 8.33 2.32 8.66 3 9 C2.01 9 1.02 9 0 9 C0 6.03 0 3.06 0 0 Z " fill="#3D3D3E" transform="translate(57,68)"/>
<path d="M0 0 C0.66 0.99 1.32 1.98 2 3 C4.56282742 3.72965366 4.56282742 3.72965366 7 4 C7.33 5.65 7.66 7.3 8 9 C4.37 9 0.74 9 -3 9 C-3 7.35 -3 5.7 -3 4 C-2.01 3.67 -1.02 3.34 0 3 C0 2.01 0 1.02 0 0 Z " fill="#898989" transform="translate(64,74)"/>
<path d="M0 0 C0.33 0.99 0.66 1.98 1 3 C2.32 3 3.64 3 5 3 C5 5.97 5 8.94 5 12 C0.25 11.25 0.25 11.25 -2 9 C-1.7578125 6.8359375 -1.7578125 6.8359375 -1.125 4.375 C-0.92132813 3.55773438 -0.71765625 2.74046875 -0.5078125 1.8984375 C-0.34023438 1.27195313 -0.17265625 0.64546875 0 0 Z " fill="#817D7E" transform="translate(52,54)"/>
<path d="M0 0 C0.78375 0.185625 1.5675 0.37125 2.375 0.5625 C4.97089775 1.25962266 4.97089775 1.25962266 7 0 C7 2.64 7 5.28 7 8 C4.69 8 2.38 8 0 8 C0 5.36 0 2.72 0 0 Z " fill="#303030" transform="translate(27,69)"/>
<path d="M0 0 C0.66 0 1.32 0 2 0 C3.3271261 3.9813783 3.06915913 7.85045227 3 12 C2.01 12 1.02 12 0 12 C-0.33 13.32 -0.66 14.64 -1 16 C-1.02712153 14.083412 -1.04645097 12.1667127 -1.0625 10.25 C-1.07410156 9.18265625 -1.08570313 8.1153125 -1.09765625 7.015625 C-1.01510087 4.46631499 -0.74617558 2.42066409 0 0 Z " fill="#151515" transform="translate(49,46)"/>
<path d="M0 0 C2.64 0 5.28 0 8 0 C8 0.66 8 1.32 8 2 C7.34 2 6.68 2 6 2 C6 2.66 6 3.32 6 4 C6.66 4.33 7.32 4.66 8 5 C7.34 5 6.68 5 6 5 C6 5.99 6 6.98 6 8 C6.66 8.33 7.32 8.66 8 9 C6.68 9 5.36 9 4 9 C4 6.69 4 4.38 4 2 C3.34 2 2.68 2 2 2 C2 4.31 2 6.62 2 9 C1.67 9 1.34 9 1 9 C0.67 6.03 0.34 3.06 0 0 Z " fill="#444445" transform="translate(35,68)"/>
<path d="M0 0 C1.2065625 0.0309375 1.2065625 0.0309375 2.4375 0.0625 C2.4375 0.7225 2.4375 1.3825 2.4375 2.0625 C1.7775 2.0625 1.1175 2.0625 0.4375 2.0625 C0.4375 4.7025 0.4375 7.3425 0.4375 10.0625 C-0.5525 10.0625 -1.5425 10.0625 -2.5625 10.0625 C-2.75662181 8.58418779 -2.94262131 7.10480684 -3.125 5.625 C-3.22941406 4.80128906 -3.33382812 3.97757813 -3.44140625 3.12890625 C-3.48136719 2.44699219 -3.52132812 1.76507813 -3.5625 1.0625 C-2.5625 0.0625 -2.5625 0.0625 0 0 Z " fill="#9A9B9B" transform="translate(60.5625,56.9375)"/>
<path d="M0 0 C0.66 0 1.32 0 2 0 C2.144375 1.134375 2.28875 2.26875 2.4375 3.4375 C2.61171478 6.80777201 2.61171478 6.80777201 4 8 C4.04063832 9.66617115 4.042721 11.33388095 4 13 C1.36 13 -1.28 13 -4 13 C-4 12.67 -4 12.34 -4 12 C-2.35 12 -0.7 12 1 12 C1 11.01 1 10.02 1 9 C0.01 8.67 -0.98 8.34 -2 8 C-1.34 7.67 -0.68 7.34 0 7 C0 4.69 0 2.38 0 0 Z " fill="#D4D4CF" transform="translate(37,70)"/>
<path d="M0 0 C1.33332095 2.6666419 0.67102033 4.16680303 0 7 C-0.66 7 -1.32 7 -2 7 C-2 8.32 -2 9.64 -2 11 C-1.34 11 -0.68 11 0 11 C0 10.34 0 9.68 0 9 C0.99 9.33 1.98 9.66 3 10 C0.82575883 12.50037734 -0.73045798 13.43628586 -4 14 C-4.56561146 8.34388537 -2.71391278 4.77357872 0 0 Z " fill="#EBD242" transform="translate(61,42)"/>
<path d="M0 0 C2.0625 0.4375 2.0625 0.4375 4 1 C4 2.32 4 3.64 4 5 C-3.75 5.125 -3.75 5.125 -6 4 C-6 3.01 -6 2.02 -6 1 C-4.7934375 1.0309375 -4.7934375 1.0309375 -3.5625 1.0625 C-1.06645115 1.29633621 -1.06645115 1.29633621 0 0 Z " fill="#78787A" transform="translate(52,78)"/>
<path d="M0 0 C1.65 0 3.3 0 5 0 C5 2.64 5 5.28 5 8 C3.35 8 1.7 8 0 8 C0 5.36 0 2.72 0 0 Z " fill="#313335" transform="translate(42,58)"/>
<path d="M0 0 C1.17832668 3.68227088 1 7.16203659 1 11 C1.42854995 13.31036915 1.42854995 13.31036915 2 15 C2.66 15 3.32 15 4 15 C4.66 17.97 5.32 20.94 6 24 C0.80579151 17.76694981 -1.47720563 12.22499146 -1.23828125 4.1015625 C-1 2 -1 2 0 0 Z " fill="#FEF9C5" transform="translate(35,22)"/>
<path d="M0 0 C0.66 0 1.32 0 2 0 C2.12117188 0.88042969 2.24234375 1.76085937 2.3671875 2.66796875 C2.53476562 3.82941406 2.70234375 4.99085937 2.875 6.1875 C3.03742187 7.33605469 3.19984375 8.48460937 3.3671875 9.66796875 C3.94060245 12.68724625 4.74759043 15.20575848 6 18 C5.34 18 4.68 18 4 18 C4 17.01 4 16.02 4 15 C3.34 15 2.68 15 2 15 C-0.59227518 10.13948404 -0.18689553 5.34728867 0 0 Z " fill="#FDFACD" transform="translate(25,30)"/>
<path d="M0 0 C0.33 0 0.66 0 1 0 C0.85879286 1.93784265 0.71187127 3.87526955 0.5625 5.8125 C0.48128906 6.89144531 0.40007813 7.97039063 0.31640625 9.08203125 C0 12 0 12 -1 15 C-1.66 15 -2.32 15 -3 15 C-3.56229448 4.27475338 -3.56229448 4.27475338 0 0 Z " fill="#F6D00A" transform="translate(32,23)"/>
<path d="M0 0 C8.27971623 -0.29051636 14.26948319 1.0752316 21 6 C20.01 6.66 19.02 7.32 18 8 C17.31550781 7.37609375 16.63101563 6.7521875 15.92578125 6.109375 C12.63352552 3.73578609 10.14349524 3.04919096 6.1875 2.25 C5.02605469 2.00765625 3.86460938 1.7653125 2.66796875 1.515625 C1.34732422 1.26039062 1.34732422 1.26039062 0 1 C0 0.67 0 0.34 0 0 Z " fill="#EBD974" transform="translate(45,12)"/>
<path d="M0 0 C0.66 0.33 1.32 0.66 2 1 C2.11613204 4.10385211 2.18722029 7.20714662 2.25 10.3125 C2.30027344 11.63411133 2.30027344 11.63411133 2.3515625 12.98242188 C2.45112665 19.52876499 2.45112665 19.52876499 -0.015625 22.10546875 C-0.67046875 22.40066406 -1.3253125 22.69585937 -2 23 C-1.67257813 22.01902344 -1.34515625 21.03804687 -1.0078125 20.02734375 C0.19137284 15.83019508 0.22816407 11.89935898 0.125 7.5625 C0.11146484 6.46518555 0.11146484 6.46518555 0.09765625 5.34570312 C0.07436153 3.56365702 0.0385019 1.78178241 0 0 Z " fill="#FDF9C4" transform="translate(71,25)"/>
<path d="M0 0 C-0.53625 0.2475 -1.0725 0.495 -1.625 0.75 C-5.83940445 2.96810761 -9.79658222 5.44064691 -13 9 C-13.99 8.34 -14.98 7.68 -16 7 C-11.37744699 1.84407548 -6.98985451 -0.49927532 0 0 Z " fill="#E5D259" transform="translate(48,13)"/>
<path d="M0 0 C1.32 0.33 2.64 0.66 4 1 C4 3.64 4 6.28 4 9 C2.68 9 1.36 9 0 9 C0 6.03 0 3.06 0 0 Z " fill="#434342" transform="translate(44,68)"/>
<path d="M0 0 C2.1875 0.3125 2.1875 0.3125 4 1 C4 1.99 4 2.98 4 4 C0.37 4.33 -3.26 4.66 -7 5 C-6.67 3.68 -6.34 2.36 -6 1 C-5.34 1 -4.68 1 -4 1 C-3.67 1.66 -3.34 2.32 -3 3 C-2.5875 2.484375 -2.175 1.96875 -1.75 1.4375 C-1.1725 0.963125 -0.595 0.48875 0 0 Z " fill="#656464" transform="translate(34,78)"/>
<path d="M0 0 C0.66 0 1.32 0 2 0 C3 3 3 3 3.4375 5.125 C3.7159375 6.053125 3.7159375 6.053125 4 7 C4.66 7.33 5.32 7.66 6 8 C4.25 11.875 4.25 11.875 2 13 C2 11.35 2 9.7 2 8 C1.34 7.67 0.68 7.34 0 7 C0 4.69 0 2.38 0 0 Z " fill="#D9D9D9" transform="translate(49,58)"/>
<path d="M0 0 C3.00617269 3.00617269 2.59585316 5.82381598 3 10 C-1.31392226 9.5206753 -3.16569547 8.2542015 -6 5 C-3.69 5.66 -1.38 6.32 1 7 C0.67 4.69 0.34 2.38 0 0 Z " fill="#ECD551" transform="translate(40,46)"/>
<path d="M0 0 C0.5859375 1.859375 0.5859375 1.859375 1 4 C0.54625 4.7425 0.0925 5.485 -0.375 6.25 C-2.53268573 9.90146816 -2.64356153 12.794026 -3 17 C-3.33 17 -3.66 17 -4 17 C-4.57374185 10.11509775 -3.4753869 5.97332123 0 0 Z " fill="#EFD962" transform="translate(31,21)"/>
<path d="M0 0 C2 3 2 3 2 5 C1.34 5 0.68 5 0 5 C0 6.32 0 7.64 0 9 C-0.99 9 -1.98 9 -3 9 C-3 7.35 -3 5.7 -3 4 C-2.01 3.67 -1.02 3.34 0 3 C0 2.01 0 1.02 0 0 Z " fill="#B7B6B5" transform="translate(64,74)"/>
<path d="M0 0 C0.99 0.33 1.98 0.66 3 1 C2.67 1.66 2.34 2.32 2 3 C2.33 3.66 2.66 4.32 3 5 C3 6.32 3 7.64 3 9 C1.68 9 0.36 9 -1 9 C-1 8.34 -1 7.68 -1 7 C-0.34 7 0.32 7 1 7 C0.34 6.01 -0.32 5.02 -1 4 C-0.625 1.8125 -0.625 1.8125 0 0 Z " fill="#3D3D3D" transform="translate(69,68)"/>
<path d="M0 0 C0.33 0 0.66 0 1 0 C1 2.64 1 5.28 1 8 C-0.65 7.67 -2.3 7.34 -4 7 C-4 5.02 -4 3.04 -4 1 C-2.02 1.99 -2.02 1.99 0 3 C0 2.01 0 1.02 0 0 Z " fill="#262625" transform="translate(56,58)"/>
<path d="M0 0 C0 1.65 0 3.3 0 5 C-2.97 5.66 -5.94 6.32 -9 7 C-9 6.34 -9 5.68 -9 5 C-7.28515625 3.7109375 -7.28515625 3.7109375 -5.0625 2.375 C-3.96615234 1.70597656 -3.96615234 1.70597656 -2.84765625 1.0234375 C-1 0 -1 0 0 0 Z " fill="#FEFAD8" transform="translate(66,51)"/>
<path d="M0 0 C4 2 4 2 6 5 C5.34 5 4.68 5 4 5 C3.67 7.64 3.34 10.28 3 13 C2.67 13 2.34 13 2 13 C1.34 8.71 0.68 4.42 0 0 Z " fill="#EBD041" transform="translate(64,19)"/>
<path d="M0 0 C0.99 0.33 1.98 0.66 3 1 C2.67 1.99 2.34 2.98 2 4 C2.39397335 6.63804589 2.39397335 6.63804589 3 9 C1.68 8.67 0.36 8.34 -1 8 C-0.34 7.34 0.32 6.68 1 6 C0.34 5.34 -0.32 4.68 -1 4 C-0.625 1.875 -0.625 1.875 0 0 Z " fill="#383835" transform="translate(37,57)"/>
<path d="M0 0 C0.99 0 1.98 0 3 0 C3 2.64 3 5.28 3 8 C2.01 8 1.02 8 0 8 C0 5.36 0 2.72 0 0 Z " fill="#575757" transform="translate(27,69)"/>
<path d="M0 0 C5.6 1.46086957 5.6 1.46086957 7.4375 3.9375 C8 6 8 6 7 9 C3 4.25 3 4.25 3 2 C2.01 1.67 1.02 1.34 0 1 C0 0.67 0 0.34 0 0 Z " fill="#FEF9CF" transform="translate(63,16)"/>
<path d="M0 0 C0.99 0 1.98 0 3 0 C3.33 2.31 3.66 4.62 4 7 C2.68 6.67 1.36 6.34 0 6 C0 4.02 0 2.04 0 0 Z " fill="#E9E9E6" transform="translate(58,70)"/>
<path d="M0 0 C0 2.64 0 5.28 0 8 C-2 7 -2 7 -3.125 3.9375 C-3.41375 2.968125 -3.7025 1.99875 -4 1 C-1 0 -1 0 0 0 Z " fill="#BBBAB6" transform="translate(42,58)"/>
<path d="M0 0 C2.64 0.66 5.28 1.32 8 2 C7.01 2.495 7.01 2.495 6 3 C5.67 3.99 5.34 4.98 5 6 C5 5.01 5 4.02 5 3 C3.68 3.33 2.36 3.66 1 4 C0.67 2.68 0.34 1.36 0 0 Z " fill="#D9D6C4" transform="translate(39,55)"/>
</svg>
