<?xml version="1.0" encoding="UTF-8"?>
<svg version="1.1" xmlns="http://www.w3.org/2000/svg" width="200" height="200">
<path d="M0 0 C66 0 132 0 200 0 C200 66 200 132 200 200 C134 200 68 200 0 200 C0 134 0 68 0 0 Z " fill="#FEFEFE" transform="translate(0,0)"/>
<path d="M0 0 C5.7732765 0.05491821 5.7732765 0.05491821 8.9375 2.5 C10.41112575 5.88933922 10.78453325 7.71817136 10.1875 11.375 C7.70009865 16.25413343 5.28992935 18.43607685 0.1875 20.375 C-3.1875 21.0625 -3.1875 21.0625 -5.8125 21.375 C-6.4725 24.015 -7.1325 26.655 -7.8125 29.375 C-9.1325 29.375 -10.4525 29.375 -11.8125 29.375 C-11.18886227 22.93074349 -10.17459842 16.70184844 -8.8125 10.375 C-8.63460937 9.51777344 -8.45671875 8.66054687 -8.2734375 7.77734375 C-6.66633766 0.20958256 -6.66633766 0.20958256 0 0 Z " fill="#107BAC" transform="translate(111.8125,89.625)"/>
<path d="M0 0 C5.61 0 11.22 0 17 0 C17 1.65 17 3.3 17 5 C13.7 5 10.4 5 7 5 C7 6.98 7 8.96 7 11 C9.97 11 12.94 11 16 11 C16 12.65 16 14.3 16 16 C13.03 16 10.06 16 7 16 C7 17.98 7 19.96 7 22 C10.3 22 13.6 22 17 22 C17 23.65 17 25.3 17 27 C11.39 27 5.78 27 0 27 C0 18.09 0 9.18 0 0 Z " fill="#0D78AA" transform="translate(36,83)"/>
<path d="M0 0 C5.61 0 11.22 0 17 0 C17 1.65 17 3.3 17 5 C13.7 5 10.4 5 7 5 C7 6.98 7 8.96 7 11 C9.97 11 12.94 11 16 11 C16 12.65 16 14.3 16 16 C13.03 16 10.06 16 7 16 C7 17.98 7 19.96 7 22 C10.3 22 13.6 22 17 22 C17 23.65 17 25.3 17 27 C11.39 27 5.78 27 0 27 C0 18.09 0 9.18 0 0 Z " fill="#0A78AA" transform="translate(16,83)"/>
<path d="M0 0 C5.28 0 10.56 0 16 0 C16 1.65 16 3.3 16 5 C12.7 5 9.4 5 6 5 C6 6.98 6 8.96 6 11 C8.97 11 11.94 11 15 11 C15 12.65 15 14.3 15 16 C12.03 16 9.06 16 6 16 C6 17.98 6 19.96 6 22 C9.63 22 13.26 22 17 22 C17 23.65 17 25.3 17 27 C11.39 27 5.78 27 0 27 C0 18.09 0 9.18 0 0 Z " fill="#0775A8" transform="translate(57,83)"/>
<path d="M0 0 C2.19921875 1.2109375 2.19921875 1.2109375 4 3 C4.96941309 7.50357263 4.52241058 11.80591867 2.6875 16 C0.66803526 18.39343969 -1.00473971 19.84494133 -4.15625 20.3359375 C-4.9296875 20.34882812 -5.703125 20.36171875 -6.5 20.375 C-7.66015625 20.41753906 -7.66015625 20.41753906 -8.84375 20.4609375 C-11 20 -11 20 -12.78515625 18.28515625 C-14.92691353 14.25644883 -14.0457498 10.30848918 -13 6 C-9.36481869 0.25406826 -6.68959087 -0.46135109 0 0 Z " fill="#0D7AAB" transform="translate(146,90)"/>
<path d="M0 0 C2.4375 1 2.4375 1 4 3 C4.33145271 5.75486103 4.18316636 8.20671304 4 11 C-0.62 11 -5.24 11 -10 11 C-9.34 12.65 -8.68 14.3 -8 16 C-2.91696314 16.11320856 -2.91696314 16.11320856 2 15 C1.01 17.475 1.01 17.475 0 20 C-1.60332791 20.08121924 -3.20784026 20.13929134 -4.8125 20.1875 C-6.15248047 20.23970703 -6.15248047 20.23970703 -7.51953125 20.29296875 C-10 20 -10 20 -11.76171875 18.61328125 C-14.45359885 15.10619456 -14.36402871 12.36834457 -14 8 C-10.42134919 1.45970714 -7.50645438 -0.65846091 0 0 Z " fill="#0F7BAC" transform="translate(179,90)"/>
<path d="M0 0 C1.65 0 3.3 0 5 0 C5.66 2.97 6.32 5.94 7 9 C7.66 9 8.32 9 9 9 C9.2475 8.443125 9.495 7.88625 9.75 7.3125 C11.25010679 4.53730243 12.83115615 2.2964229 15 0 C16.32 0 17.64 0 19 0 C17.55125558 3.34555413 15.65070103 5.40550555 13.125 8 C11.12703211 10.26848934 11.12703211 10.26848934 10 13 C10.59382293 17.36005126 12.21303514 21.00890428 14 25 C14 25.66 14 26.32 14 27 C12.35 27 10.7 27 9 27 C8.01 24.03 7.02 21.06 6 18 C5.55269531 18.6496875 5.10539062 19.299375 4.64453125 19.96875 C4.03996094 20.8040625 3.43539062 21.639375 2.8125 22.5 C2.22082031 23.3353125 1.62914063 24.170625 1.01953125 25.03125 C-1 27 -1 27 -3.73828125 27.28125 C-4.85783203 27.14203125 -4.85783203 27.14203125 -6 27 C-4.62743168 24.55987855 -3.23420664 22.27848451 -1.4296875 20.1328125 C2.21907253 15.8667054 2.21907253 15.8667054 3 10.4375 C2.67 9.303125 2.34 8.16875 2 7 C1.82339844 6.34257813 1.64679688 5.68515625 1.46484375 5.0078125 C1.00979238 3.32917855 0.5090943 1.6630414 0 0 Z " fill="#107BAC" transform="translate(86,83)"/>
<path d="M0 0 C2.31 0 4.62 0 7 0 C7 8.91 7 17.82 7 27 C4.69 27 2.38 27 0 27 C0 18.09 0 9.18 0 0 Z " fill="#0576A9" transform="translate(5,83)"/>
<path d="M0 0 C1.32 0 2.64 0 4 0 C3.43617776 6.99365488 2.37639601 13.76100843 0.9375 20.625 C0.6580957 21.98818359 0.6580957 21.98818359 0.37304688 23.37890625 C-0.08017296 25.5869003 -0.53789693 27.79385124 -1 30 C-2.65 30 -4.3 30 -6 30 C-5.17217266 23.8430342 -4.10276242 17.73813948 -3 11.625 C-2.82210937 10.61566406 -2.64421875 9.60632813 -2.4609375 8.56640625 C-2.28820312 7.60863281 -2.11546875 6.65085937 -1.9375 5.6640625 C-1.70353516 4.35622803 -1.70353516 4.35622803 -1.46484375 3.02197266 C-1 1 -1 1 0 0 Z " fill="#157DAE" transform="translate(129,80)"/>
<path d="M0 0 C2.5 0.125 2.5 0.125 3.5 1.125 C3.78025458 5.32881872 3.85522129 8.17774324 2.375 12.125 C0.5 14.125 0.5 14.125 -2.6875 14.4375 C-3.615625 14.334375 -4.54375 14.23125 -5.5 14.125 C-6.6981767 8.67874227 -6.44670359 5.88505965 -3.5 1.125 C-2.5 0.125 -2.5 0.125 0 0 Z " fill="#F2F7FA" transform="translate(142.5,92.875)"/>
<path d="M0 0 C0.7425 0.165 1.485 0.33 2.25 0.5 C5.18606431 1.03382988 7.13588733 0.73648612 10 0 C9.8125 1.875 9.8125 1.875 9 4 C8.2059375 4.226875 7.411875 4.45375 6.59375 4.6875 C3.66184436 5.81882164 3.66184436 5.81882164 2.63671875 9.2578125 C2.16685547 11.17207031 2.16685547 11.17207031 1.6875 13.125 C1.43516602 14.11306641 1.43516602 14.11306641 1.17773438 15.12109375 C0.76644123 16.74276388 0.38069618 18.37087555 0 20 C-1.32 20 -2.64 20 -4 20 C-1.95744681 1.95744681 -1.95744681 1.95744681 0 0 Z " fill="#0F7BAC" transform="translate(156,90)"/>
<path d="M0 0 C4.70588235 0.70588235 4.70588235 0.70588235 6 2 C6.26406782 5.49889866 6.38429254 8.14099315 4.9375 11.375 C2.15340041 13.71005127 -0.45090698 13.73214392 -4 14 C-2.86792453 2.86792453 -2.86792453 2.86792453 0 0 Z " fill="#F4F8FB" transform="translate(111,93)"/>
<path d="M0 0 C0.763125 0.20625 1.52625 0.4125 2.3125 0.625 C2.6425 2.935 2.9725 5.245 3.3125 7.625 C0.3125 9.625 0.3125 9.625 -2.25 9.375 C-4.6875 8.625 -4.6875 8.625 -6.6875 6.625 C-6.5 4.125 -6.5 4.125 -5.6875 1.625 C-2.6875 -0.375 -2.6875 -0.375 0 0 Z " fill="#8BBBD6" transform="translate(190.6875,85.375)"/>
<path d="M0 0 C1.2065625 0.0309375 1.2065625 0.0309375 2.4375 0.0625 C2.7675 1.7125 3.0975 3.3625 3.4375 5.0625 C0.4675 5.0625 -2.5025 5.0625 -5.5625 5.0625 C-3.06867284 0.07484568 -3.06867284 0.07484568 0 0 Z " fill="#F6F9FB" transform="translate(175.5625,92.9375)"/>
<path d="M0 0 C0.33 0 0.66 0 1 0 C1.1875 2.375 1.1875 2.375 1 5 C-2 7 -2 7 -4.6875 6.625 C-5.450625 6.41875 -6.21375 6.2125 -7 6 C-6.67 4.68 -6.34 3.36 -6 2 C-2.125 2.875 -2.125 2.875 -1 4 C-0.67 2.68 -0.34 1.36 0 0 Z " fill="#56A1C6" transform="translate(193,88)"/>
</svg>
