<?xml version="1.0" encoding="UTF-8"?>
<svg version="1.1" xmlns="http://www.w3.org/2000/svg" width="480" height="252">
<path d="M0 0 C158.4 0 316.8 0 480 0 C480 83.16 480 166.32 480 252 C321.6 252 163.2 252 0 252 C0 168.84 0 85.68 0 0 Z " fill="#FAFBFC" transform="translate(0,0)"/>
<path d="M0 0 C158.4 0 316.8 0 480 0 C480 83.16 480 166.32 480 252 C469.11 252 458.22 252 447 252 C447 247.71 447 243.42 447 239 C449.289375 238.4121875 449.289375 238.4121875 451.625 237.8125 C457.95102744 235.88874342 461.43516587 233.66021803 464.875 227.8125 C466.49522774 222.32172823 467.3112941 217.14602659 465.05078125 211.72265625 C462.30409671 207.0697553 459.19785177 202.85215561 453.76269531 201.40380859 C452.95928711 201.23703613 452.15587891 201.07026367 451.328125 200.8984375 C450.11237793 200.64199463 450.11237793 200.64199463 448.87207031 200.38037109 C447.94539551 200.1920874 447.94539551 200.1920874 447 200 C446.99853344 199.20154852 446.99706688 198.40309704 446.99555588 197.58045006 C446.95850109 178.1506094 446.89950402 158.72094874 446.81609726 139.29125023 C446.77629119 129.89517303 446.74390667 120.49917977 446.72900391 111.10302734 C446.71599551 102.91314604 446.68905165 94.72344933 446.64538693 86.53367198 C446.62275379 82.19737492 446.60709042 77.86130567 446.60811615 73.52494431 C446.60886167 69.44217518 446.59095456 65.35991001 446.55883217 61.27727127 C446.55032374 59.7801366 446.54858968 58.28294547 446.55419731 56.78579712 C446.56084519 54.73790792 446.542902 52.69161853 446.51898193 50.64389038 C446.51529476 49.49902349 446.51160759 48.35415661 446.50780869 47.17459679 C445.86705413 43.16888083 444.61242547 41.09161907 442 38 C437.57913243 35.31746597 434.29503211 34.62458814 429.15646362 34.62247658 C428.48949565 34.61811626 427.82252768 34.61375593 427.13534856 34.60926348 C424.90236159 34.59832263 422.66999409 34.6087233 420.43701172 34.61904907 C418.81918459 34.61559204 417.20135981 34.61082716 415.58353996 34.60486734 C411.13919873 34.59233396 406.69505054 34.59853835 402.25070858 34.60782599 C397.4571851 34.61460657 392.66369508 34.60414018 387.87017822 34.59588623 C378.48020112 34.58253611 369.09029589 34.58543234 359.70031595 34.59412415 C352.06987829 34.60089526 344.4394608 34.6018199 336.809021 34.5985527 C335.72362467 34.598093 334.63822834 34.59763331 333.51994121 34.59715968 C331.3150808 34.59620051 329.11022039 34.59522788 326.90535998 34.5942419 C306.2232404 34.58568426 285.54116069 34.59552801 264.85904765 34.611643 C247.10718367 34.62504652 229.35537854 34.62271853 211.60351562 34.60888672 C190.99614302 34.59283752 170.38880537 34.58650827 149.78142738 34.59572351 C147.58461126 34.59667917 145.38779514 34.59762228 143.190979 34.5985527 C141.56960347 34.59924694 141.56960347 34.59924694 139.91547287 34.59995521 C132.29290356 34.60254708 124.6703564 34.59816986 117.04779053 34.59111404 C107.76028905 34.58270618 98.47286366 34.58496416 89.18537092 34.60095628 C84.44541962 34.6088486 79.70559524 34.61191422 74.96564484 34.60200882 C70.62808998 34.59308133 66.2907799 34.5979626 61.95324731 34.61394148 C60.38267327 34.61729754 58.81207862 34.61557671 57.24151778 34.60831411 C55.10856229 34.59920613 52.97644785 34.60853261 50.84353638 34.62247658 C49.65826418 34.62296363 48.47299198 34.62345069 47.25180244 34.62395251 C43.5458669 35.05251722 41.16765697 36.05084919 38 38 C34.09040482 43.24669463 33.41750891 47.27577642 33.48101807 53.70030212 C33.46976619 54.97721659 33.46976619 54.97721659 33.458287 56.27992731 C33.43806272 59.11907936 33.44610213 61.95742878 33.45410156 64.79663086 C33.4453637 66.83705432 33.43487717 68.87747092 33.42277527 70.9178772 C33.39492098 76.4483326 33.39151047 81.97856434 33.39249516 87.50907969 C33.38936559 93.2920385 33.36374643 99.07489665 33.34051514 104.85780334 C33.29995506 115.80464438 33.27961436 126.75142585 33.26654124 137.69833046 C33.25067127 150.16263801 33.2122556 162.62684419 33.17194796 175.09109294 C33.08954884 200.72736423 33.03625646 226.36362552 33 252 C22.11 252 11.22 252 0 252 C0 168.84 0 85.68 0 0 Z " fill="#93F0C4" transform="translate(0,0)"/>
<path d="M0 0 C0.7541944 0.00108953 1.50838881 0.00217907 2.28543758 0.00330162 C3.58727489 -0.00928185 3.58727489 -0.00928185 4.91541195 -0.02211952 C6.33920918 -0.005261 6.33920918 -0.005261 7.79176998 0.0119381 C9.29453487 0.00624306 9.29453487 0.00624306 10.82765865 0.00043297 C14.14600886 -0.00698904 17.46348756 0.01443216 20.78176022 0.03684044 C23.08196567 0.03922378 25.38217309 0.04013042 27.68237972 0.03961754 C32.50526249 0.04274829 37.32784856 0.05933627 42.1506567 0.08615685 C48.34399588 0.12015598 54.53700904 0.12778506 60.7304306 0.12626648 C65.48037506 0.12680935 70.23024772 0.13776281 74.98016834 0.15226936 C77.26440989 0.15864965 79.5486596 0.16257912 81.83290958 0.16405678 C85.01985932 0.16837562 88.20645776 0.18584559 91.39333248 0.2072506 C92.34455486 0.20634422 93.29577724 0.20543785 94.27582455 0.20450401 C95.14089626 0.21303398 96.00596798 0.22156395 96.89725399 0.2303524 C97.65107137 0.23370409 98.40488874 0.23705578 99.18154907 0.24050903 C101.02785397 0.49777794 101.02785397 0.49777794 103.02785397 2.49777794 C103.02785397 18.33777794 103.02785397 34.17777794 103.02785397 50.49777794 C67.38785397 50.49777794 31.74785397 50.49777794 -4.97214603 50.49777794 C-4.97214603 1.25499053 -4.97214603 1.25499053 0 0 Z " fill="#F1F1F2" transform="translate(190.97214603424072,201.50222206115723)"/>
<path d="M0 0 C1.28704834 -0.01268921 1.28704834 -0.01268921 2.60009766 -0.02563477 C4.00751221 -0.01652573 4.00751221 -0.01652573 5.44335938 -0.00723267 C6.43384277 -0.01248962 7.42432617 -0.01774658 8.44482422 -0.02316284 C11.72574536 -0.03638929 15.00618312 -0.02761522 18.28710938 -0.01748657 C20.56250095 -0.01950654 22.8378919 -0.02241733 25.11328125 -0.02618408 C29.88482825 -0.03061103 34.65620692 -0.02416433 39.42773438 -0.01016235 C45.5515279 0.00692957 51.67492701 -0.0029096 57.79870605 -0.02087975 C62.49807724 -0.03170748 67.19735454 -0.02827586 71.89672852 -0.02049637 C74.15502977 -0.01849157 76.41333948 -0.02096339 78.67163086 -0.02793503 C81.82493756 -0.03553275 84.97760075 -0.02396848 88.13085938 -0.00723267 C89.06913574 -0.01330536 90.00741211 -0.01937805 90.97412109 -0.02563477 C91.83215332 -0.01717529 92.69018555 -0.00871582 93.57421875 0 C94.31973999 0.00113108 95.06526123 0.00226215 95.83337402 0.00342751 C97.78710938 0.38095093 97.78710938 0.38095093 100.78710938 3.38095093 C100.78710938 18.89095093 100.78710938 34.40095093 100.78710938 50.38095093 C65.14710938 50.38095093 29.50710937 50.38095093 -7.21289062 50.38095093 C-7.21289062 34.87095093 -7.21289062 19.36095093 -7.21289062 3.38095093 C-3.83776221 0.00582251 -3.83776221 0.00582251 0 0 Z " fill="#F2F2F3" transform="translate(80.212890625,201.61904907226563)"/>
<path d="M0 0 C33.66 0 67.32 0 102 0 C109.46696428 14.93392856 105 33.30336028 105 50 C69.36 50 33.72 50 -3 50 C-3 34.49 -3 18.98 -3 3 C-2.01 2.34 -1.02 1.68 0 1 C0 0.67 0 0.34 0 0 Z " fill="#F2F2F3" transform="translate(303,202)"/>
<path d="M0 0 C5.47643912 2.90709654 9.50736103 7.62838293 11.8984375 13.31640625 C12.88606951 20.06905304 11.90876844 25.75887973 7.8984375 31.31640625 C3.39358199 36.28946303 -1.40353225 38.05530655 -7.9765625 38.69140625 C-13.30017206 38.52854248 -17.74222426 36.49655424 -21.64453125 32.890625 C-26.10628496 27.8269925 -27.59724659 23.2775427 -27.41015625 16.65234375 C-26.52295741 9.93658545 -22.8923422 5.61978298 -17.78515625 1.4453125 C-12.89298245 -1.83505462 -5.47577775 -1.78115447 0 0 Z " fill="#FDFCFC" transform="translate(455.1015625,200.68359375)"/>
<path d="M0 0 C5.5 3 5.5 3 7 6 C7.4375 9.3125 7.4375 9.3125 7 13 C2.9207849 17.57668035 0.14579705 18.40905798 -6 19 C-6.66 19.66 -7.32 20.32 -8 21 C-10.125 20.625 -10.125 20.625 -12 20 C-11.67 18.68 -11.34 17.36 -11 16 C-11.99 15.67 -12.98 15.34 -14 15 C-15.59745879 11.80508241 -15.50816842 8.46790611 -15 5 C-11.18927224 -0.12477182 -6.12197894 -0.86631777 0 0 Z " fill="#CBCCCD" transform="translate(358,210)"/>
<path d="M0 0 C2.31 0.66 4.62 1.32 7 2 C6.67 2.66 6.34 3.32 6 4 C6.66 4 7.32 4 8 4 C8.33 3.34 8.66 2.68 9 2 C9.5775 2.185625 10.155 2.37125 10.75 2.5625 C13.20692525 3.04023546 14.64397534 2.75729364 17 2 C17 2.66 17 3.32 17 4 C17.66 4 18.32 4 19 4 C19 8.29 19 12.58 19 17 C12.73 17 6.46 17 0 17 C0 11.39 0 5.78 0 0 Z " fill="#5A5A5A" transform="translate(231,214)"/>
<path d="M0 0 C1.37562854 1.28965176 2.70766393 2.62689293 4 4 C4 4.66 4 5.32 4 6 C7.3 4.68 10.6 3.36 14 2 C12.96427144 7.1786428 11.42462014 10.38540038 9 15 C3.39 15 -2.22 15 -8 15 C-12.00390625 7.48046875 -12.00390625 7.48046875 -13 5 C-12.67 4.01 -12.34 3.02 -12 2 C-11.2575 2.515625 -10.515 3.03125 -9.75 3.5625 C-7.20294386 5.17934459 -7.20294386 5.17934459 -4.875 4.9375 C-2.47703213 3.73851606 -1.43770335 2.2284402 0 0 Z " fill="#FD3838" transform="translate(447,212)"/>
<path d="M0 0 C0 5.61 0 11.22 0 17 C-4.62 17 -9.24 17 -14 17 C-14 11.39 -14 5.78 -14 0 C-8 -1 -8 -1 0 0 Z " fill="#EBEEF0" transform="translate(192,117)"/>
<path d="M0 0 C1.67343448 -0.29749946 3.34305915 -0.62127066 5 -1 C5.33 -0.67 5.66 -0.34 6 0 C8.33297433 0.04092937 10.66705225 0.04241723 13 0 C13.38218767 1.65614657 13.71395102 3.32457024 14 5 C12.02019558 6.97980442 8.30021248 6.16930681 5.64501953 6.18945312 C4.64841309 6.18880859 3.65180664 6.18816406 2.625 6.1875 C1.62452637 6.18814453 0.62405273 6.18878906 -0.40673828 6.18945312 C-7.10368574 6.14148541 -13.49998636 5.74163045 -20 4 C-20.33 2.68 -20.66 1.36 -21 0 C-20.00419922 0.01740234 -20.00419922 0.01740234 -18.98828125 0.03515625 C-13.58695358 0.12361557 -13.58695358 0.12361557 -8.25 -0.5625 C-5.32373116 -1.13149672 -2.92559705 -0.48759951 0 0 Z " fill="#CBCCD0" transform="translate(135,246)"/>
<path d="M0 0 C0.58007812 0.30035156 1.16015625 0.60070312 1.7578125 0.91015625 C6.59259016 3.26371963 9.63148758 4.62303864 15 3 C15.78375 2.814375 16.5675 2.62875 17.375 2.4375 C17.91125 2.293125 18.4475 2.14875 19 2 C19 3.65 19 5.3 19 7 C19.66 7 20.32 7 21 7 C21 7.99 21 8.98 21 10 C13.12017167 14 13.12017167 14 9.375 14 C6.05816341 12.60343722 3.07656002 10.87006589 0 9 C0.66 8.67 1.32 8.34 2 8 C1.67 7.67 1.34 7.34 1 7 C0.45147849 4.62307345 0 2.44284311 0 0 Z " fill="#7CA4AF" transform="translate(117,213)"/>
<path d="M0 0 C0 5.61 0 11.22 0 17 C-4.62 17 -9.24 17 -14 17 C-14 11.39 -14 5.78 -14 0 C-8 -1 -8 -1 0 0 Z M-12 2 C-12 6.29 -12 10.58 -12 15 C-8.7 15 -5.4 15 -2 15 C-2 10.71 -2 6.42 -2 2 C-5.3 2 -8.6 2 -12 2 Z " fill="#C6946A" transform="translate(192,117)"/>
<path d="M0 0 C1.37562854 1.28965176 2.70766393 2.62689293 4 4 C4 4.66 4 5.32 4 6 C7.3 4.68 10.6 3.36 14 2 C13 7 13 7 10 14 C5.05 11.69 0.1 9.38 -5 7 C-3.35 4.69 -1.7 2.38 0 0 Z " fill="#C04648" transform="translate(447,212)"/>
<path d="M0 0 C1.70805491 0.95692233 3.39147538 1.95754148 5.0703125 2.96484375 C-0.9921875 7.00651042 -0.9921875 7.00651042 -4.7421875 6.83984375 C-8.65224287 5.76649522 -11.48820356 4.09856379 -14.9296875 1.96484375 C-14.9296875 1.30484375 -14.9296875 0.64484375 -14.9296875 -0.03515625 C-8.8370392 -3.20333337 -6.21711573 -3.33509245 0 0 Z " fill="#C94E47" transform="translate(131.9296875,209.03515625)"/>
<path d="M0 0 C0.56380371 0.0714624 1.12760742 0.1429248 1.70849609 0.21655273 C9.02851922 1.05519857 16.26360458 1.11584345 23.625 1.0625 C24.81996094 1.05798828 26.01492188 1.05347656 27.24609375 1.04882812 C30.16411647 1.03715603 33.08203037 1.02078326 36 1 C36.495 2.485 36.495 2.485 37 4 C36.34 4.33 35.68 4.66 35 5 C35 4.34 35 3.68 35 3 C34.34 3.165 33.68 3.33 33 3.5 C30.49532384 3.91744603 28.39139947 4.03714243 25.875 4 C22.08564502 3.79576957 22.08564502 3.79576957 19 5 C17.35944795 5.24649363 15.71235132 5.45133144 14.0625 5.625 C12.78052734 5.76808594 12.78052734 5.76808594 11.47265625 5.9140625 C9.05917068 5.99794352 7.30135129 5.66604983 5 5 C4.34 5 3.68 5 3 5 C3 4.34 3 3.68 3 3 C2.01 3.33 1.02 3.66 0 4 C0 2.68 0 1.36 0 0 Z " fill="#BAC1CB" transform="translate(243,147)"/>
<path d="M0 0 C0.99 0 1.98 0 3 0 C3 3.63 3 7.26 3 11 C-0.3125 11.25 -0.3125 11.25 -4 11 C-5.9375 9 -5.9375 9 -7 7 C-7.33 8.32 -7.66 9.64 -8 11 C-8.99 11 -9.98 11 -11 11 C-11 8.36 -11 5.72 -11 3 C-7.37 3 -3.74 3 0 3 C0 2.01 0 1.02 0 0 Z " fill="#A8ABB2" transform="translate(278,119)"/>
<path d="M0 0 C0.96099609 0.10828125 0.96099609 0.10828125 1.94140625 0.21875 C6.99557809 0.76107544 11.91779721 1.11048267 17 1 C17 2.98 17 4.96 17 7 C14.72923158 7.02699725 12.45837179 7.04639453 10.1875 7.0625 C8.29064453 7.07990234 8.29064453 7.07990234 6.35546875 7.09765625 C3 7 3 7 0 6 C0 4.02 0 2.04 0 0 Z " fill="#9398A0" transform="translate(96,245)"/>
<path d="M0 0 C2.31 0.66 4.62 1.32 7 2 C7 2.99 7 3.98 7 5 C1.66666667 5 -3.66666667 5 -9 5 C-9.33 5.66 -9.66 6.32 -10 7 C-10 6.34 -10 5.68 -10 5 C-14.29 5 -18.58 5 -23 5 C-22.67 4.01 -22.34 3.02 -22 2 C-22 2.66 -22 3.32 -22 4 C-21.34 4 -20.68 4 -20 4 C-19.67 3.01 -19.34 2.02 -19 1 C-17.06833984 1.01740234 -17.06833984 1.01740234 -15.09765625 1.03515625 C-13.41927228 1.0445327 -11.74088674 1.05363305 -10.0625 1.0625 C-9.21236328 1.07087891 -8.36222656 1.07925781 -7.48632812 1.08789062 C-6.67744141 1.09111328 -5.86855469 1.09433594 -5.03515625 1.09765625 C-4.2862915 1.10289307 -3.53742676 1.10812988 -2.76586914 1.11352539 C-0.97332261 1.19341752 -0.97332261 1.19341752 0 0 Z " fill="#CDD2D9" transform="translate(251,164)"/>
<path d="M0 0 C2.4375 0.8125 2.4375 0.8125 4.4375 2.8125 C4.6875 5.8125 4.6875 5.8125 4.4375 8.8125 C2.4375 10.8125 2.4375 10.8125 -0.5625 11.0625 C-3.5625 10.8125 -3.5625 10.8125 -5.5625 8.8125 C-5.89911952 5.6482765 -6.06193411 3.62736618 -4.375 0.875 C-2.5625 -0.1875 -2.5625 -0.1875 0 0 Z " fill="#313848" transform="translate(224.5625,119.1875)"/>
<path d="M0 0 C0.58007812 0.30035156 1.16015625 0.60070312 1.7578125 0.91015625 C6.59259016 3.26371963 9.63148758 4.62303864 15 3 C15.78375 2.814375 16.5675 2.62875 17.375 2.4375 C17.91125 2.293125 18.4475 2.14875 19 2 C18.67 2.99 18.34 3.98 18 5 C14.37 5.66 10.74 6.32 7 7 C7 7.66 7 8.32 7 9 C7.99 8.67 8.98 8.34 10 8 C12.33299825 7.96045766 14.66708189 7.95598268 17 8 C15.4375 9.5625 15.4375 9.5625 13 11 C7.65234066 10.90096927 3.98461036 9.59586789 0 6 C-0.375 2.75 -0.375 2.75 0 0 Z " fill="#4B6882" transform="translate(117,213)"/>
<path d="M0 0 C0.94875 0.350625 1.8975 0.70125 2.875 1.0625 C2.875 1.7225 2.875 2.3825 2.875 3.0625 C3.535 3.0625 4.195 3.0625 4.875 3.0625 C4.875 2.4025 4.875 1.7425 4.875 1.0625 C6.29133336 0.89302421 7.70808533 0.72704493 9.125 0.5625 C10.30835938 0.42328125 10.30835938 0.42328125 11.515625 0.28125 C13.875 0.0625 13.875 0.0625 17.875 0.0625 C17.875 1.3825 17.875 2.7025 17.875 4.0625 C9.955 4.0625 2.035 4.0625 -6.125 4.0625 C-5.795 2.7425 -5.465 1.4225 -5.125 0.0625 C-3.125 -0.9375 -3.125 -0.9375 0 0 Z " fill="#C8CED6" transform="translate(318.125,164.9375)"/>
<path d="M0 0 C0.99 0.33 1.98 0.66 3 1 C5.33299825 1.03954234 7.66708189 1.04401732 10 1 C10.38218767 2.65614657 10.71395102 4.32457024 11 6 C10 7 10 7 6.40234375 7.09765625 C4.91403133 7.0909822 3.42573568 7.07902183 1.9375 7.0625 C1.17888672 7.05798828 0.42027344 7.05347656 -0.36132812 7.04882812 C-2.24091871 7.0370068 -4.12046899 7.01907078 -6 7 C-3 5 -3 5 -1 5 C-0.67 3.35 -0.34 1.7 0 0 Z " fill="#D6D7D9" transform="translate(138,245)"/>
<path d="M0 0 C5.61 0 11.22 0 17 0 C17 0.33 17 0.66 17 1 C11.72 1 6.44 1 1 1 C1 1.66 1 2.32 1 3 C6.28 3 11.56 3 17 3 C17 3.99 17 4.98 17 6 C11.39 6 5.78 6 0 6 C0 4.02 0 2.04 0 0 Z " fill="#404040" transform="translate(232,225)"/>
<path d="M0 0 C0 0.66 0 1.32 0 2 C-1.32 2 -2.64 2 -4 2 C-3.67 2.99 -3.34 3.98 -3 5 C-3.99 5.495 -3.99 5.495 -5 6 C-5 5.34 -5 4.68 -5 4 C-5.99 4 -6.98 4 -8 4 C-8.33 4.99 -8.66 5.98 -9 7 C-9.99 6.67 -10.98 6.34 -12 6 C-11.67 5.67 -11.34 5.34 -11 5 C-12.32 4.34 -13.64 3.68 -15 3 C-15 2.01 -15 1.02 -15 0 C-9.76528314 -0.75612577 -5.22745859 -1.2063366 0 0 Z " fill="#B6B6B6" transform="translate(248,212)"/>
<path d="M0 0 C0.5775 0.185625 1.155 0.37125 1.75 0.5625 C4.20692525 1.04023546 5.64397534 0.75729364 8 0 C8 0.66 8 1.32 8 2 C8.66 2 9.32 2 10 2 C9.67 2.99 9.34 3.98 9 5 C3.39 5 -2.22 5 -8 5 C-8 4.01 -8 3.02 -8 2 C-5.69 2 -3.38 2 -1 2 C-0.67 1.34 -0.34 0.68 0 0 Z " fill="#3C3C3C" transform="translate(240,216)"/>
<path d="M0 0 C1.65 0.33 3.3 0.66 5 1 C5.66 3.97 6.32 6.94 7 10 C6.01 10 5.02 10 4 10 C4 9.34 4 8.68 4 8 C2.68 8 1.36 8 0 8 C0 8.66 0 9.32 0 10 C-0.66 10 -1.32 10 -2 10 C-1.54177532 6.53058454 -1.10868317 3.32604951 0 0 Z " fill="#282F40" transform="translate(201,120)"/>
<path d="M0 0 C2.625 0.375 2.625 0.375 5 1 C5.625 3.3125 5.625 3.3125 6 6 C5.01 7.485 5.01 7.485 4 9 C-0.875 8.125 -0.875 8.125 -2 7 C-2.1875 4.5625 -2.1875 4.5625 -2 2 C-1.34 1.34 -0.68 0.68 0 0 Z " fill="#293041" transform="translate(251,122)"/>
<path d="M0 0 C0.99 0 1.98 0 3 0 C3 0.99 3 1.98 3 3 C4.32 3 5.64 3 7 3 C8.125 8.75 8.125 8.75 7 11 C5.68 10.67 4.36 10.34 3 10 C3.66 10 4.32 10 5 10 C5 8.35 5 6.7 5 5 C4.01 5 3.02 5 2 5 C2 6.98 2 8.96 2 11 C1.34 11 0.68 11 0 11 C0 7.37 0 3.74 0 0 Z " fill="#363D4D" transform="translate(240,119)"/>
<path d="M0 0 C0.99 0 1.98 0 3 0 C3 3.63 3 7.26 3 11 C0.69 11 -1.62 11 -4 11 C-3.67 10.01 -3.34 9.02 -3 8 C-2.01 8.33 -1.02 8.66 0 9 C0 7.68 0 6.36 0 5 C-1.32 5.33 -2.64 5.66 -4 6 C-4 5.01 -4 4.02 -4 3 C-2.68 3 -1.36 3 0 3 C0 2.01 0 1.02 0 0 Z " fill="#2F3647" transform="translate(278,119)"/>
<path d="M0 0 C0.66 0.66 1.32 1.32 2 2 C1.01 3.485 1.01 3.485 0 5 C-2.62697064 5.22137393 -5.00893964 5.28162025 -7.625 5.1875 C-8.33140625 5.17396484 -9.0378125 5.16042969 -9.765625 5.14648438 C-11.51074128 5.1111104 -13.25546608 5.05730221 -15 5 C-15 3.68 -15 2.36 -15 1 C-14.00419922 1.01740234 -14.00419922 1.01740234 -12.98828125 1.03515625 C-7.46032661 1.1106713 -7.46032661 1.1106713 -2 0.375 C-1.34 0.25125 -0.68 0.1275 0 0 Z " fill="#797F89" transform="translate(129,245)"/>
<path d="M0 0 C0.66 0 1.32 0 2 0 C1.67 1.65 1.34 3.3 1 5 C-3.62 5 -8.24 5 -13 5 C-13 3.68 -13 2.36 -13 1 C-11.71802734 1.01740234 -11.71802734 1.01740234 -10.41015625 1.03515625 C-8.75306641 1.04869141 -8.75306641 1.04869141 -7.0625 1.0625 C-5.40927734 1.07990234 -5.40927734 1.07990234 -3.72265625 1.09765625 C-1.08552366 1.31262571 -1.08552366 1.31262571 0 0 Z " fill="#C7CDD5" transform="translate(139,164)"/>
<path d="M0 0 C3.3 0.33 6.6 0.66 10 1 C10.33 2.65 10.66 4.3 11 6 C9.68 6.33 8.36 6.66 7 7 C7 6.34 7 5.68 7 5 C4.03 5 1.06 5 -2 5 C-1.34 4.67 -0.68 4.34 0 4 C0 2.68 0 1.36 0 0 Z " fill="#C9CED6" transform="translate(300,164)"/>
<path d="M0 0 C0 1.32 0 2.64 0 4 C-3.63 4 -7.26 4 -11 4 C-11 3.34 -11 2.68 -11 2 C-11.66 2 -12.32 2 -13 2 C-13.33 2.66 -13.66 3.32 -14 4 C-13.67 2.68 -13.34 1.36 -13 0 C-8.37078475 -1.0161692 -4.65537393 -0.83796731 0 0 Z " fill="#C2C8D1" transform="translate(223,148)"/>
<path d="M0 0 C1.67542976 0.28604898 3.34385343 0.61781233 5 1 C5.33 2.32 5.66 3.64 6 5 C4.68 5.33 3.36 5.66 2 6 C2.99 6.66 3.98 7.32 5 8 C3.1875 8.6875 3.1875 8.6875 1 9 C-0.8125 7.875 -0.8125 7.875 -2 6 C-1.57894737 1.57894737 -1.57894737 1.57894737 0 0 Z " fill="#3F4555" transform="translate(284,122)"/>
<path d="M0 0 C1.875 0.25 1.875 0.25 4 1 C5.25 3.0625 5.25 3.0625 6 5 C8.97851562 4.90234375 8.97851562 4.90234375 11.95703125 4.8046875 C14 5 14 5 17 7 C14.72923158 7.02699725 12.45837179 7.04639453 10.1875 7.0625 C8.29064453 7.07990234 8.29064453 7.07990234 6.35546875 7.09765625 C3 7 3 7 0 6 C0 4.02 0 2.04 0 0 Z " fill="#E3E4E5" transform="translate(96,245)"/>
<path d="M0 0 C1.21386936 3.64160808 0.6674695 4.33165469 -0.9375 7.6875 C-1.31777344 8.49574219 -1.69804687 9.30398437 -2.08984375 10.13671875 C-2.39019531 10.75160156 -2.69054687 11.36648437 -3 12 C-6.96 7.68 -6.96 7.68 -7.125 4.875 C-5.41742777 2.02904628 -2.98019939 1.26816995 0 0 Z " fill="#894349" transform="translate(460,214)"/>
<path d="M0 0 C1.66611905 -0.042721 3.33382885 -0.04063832 5 0 C6 1 6 1 6.0625 4.5625 C6.041875 5.696875 6.02125 6.83125 6 8 C3.69 8 1.38 8 -1 8 C-0.7525 7.13375 -0.7525 7.13375 -0.5 6.25 C0.14462031 3.73335631 0.14462031 3.73335631 0 0 Z " fill="#474D5C" transform="translate(259,122)"/>
<path d="M0 0 C5.94 0 11.88 0 18 0 C18.33 0.99 18.66 1.98 19 3 C18.01 3.495 18.01 3.495 17 4 C17 3.34 17 2.68 17 2 C16.34 2.165 15.68 2.33 15 2.5 C11.26065515 3.12322414 7.7931513 3.06117986 4 3 C3.01 3 2.02 3 1 3 C0.67 2.01 0.34 1.02 0 0 Z " fill="#B2BAC5" transform="translate(261,148)"/>
<path d="M0 0 C6.27 0.33 12.54 0.66 19 1 C19.33 1.66 19.66 2.32 20 3 C13.4 3 6.8 3 0 3 C0 2.01 0 1.02 0 0 Z " fill="#AAADB3" transform="translate(322,249)"/>
<path d="M0 0 C3.3 0 6.6 0 10 0 C10 4.29 10 8.58 10 13 C6.7 13 3.4 13 0 13 C0 12.67 0 12.34 0 12 C1.65 12 3.3 12 5 12 C5 11.34 5 10.68 5 10 C6.32 10 7.64 10 9 10 C8.67 7.69 8.34 5.38 8 3 C5.36 2.67 2.72 2.34 0 2 C0 1.34 0 0.68 0 0 Z " fill="#FEFEFE" transform="translate(180,119)"/>
<path d="M0 0 C-0.875 3.875 -0.875 3.875 -2 5 C-4.69082872 4.82364548 -7.32851446 4.38164079 -10 4 C-10 3.01 -10 2.02 -10 1 C-6.52674819 -0.1577506 -3.63932552 -0.06866652 0 0 Z " fill="#8F939B" transform="translate(148,246)"/>
<path d="M0 0 C0.33 0.66 0.66 1.32 1 2 C1.99 1.67 2.98 1.34 4 1 C6.1875 1.4375 6.1875 1.4375 8 2 C8.33 1.34 8.66 0.68 9 0 C9.99 0.66 10.98 1.32 12 2 C12 2.99 12 3.98 12 5 C8.04 5 4.08 5 0 5 C0 3.35 0 1.7 0 0 Z " fill="#C0C6D0" transform="translate(164,164)"/>
<path d="M0 0 C0.66 0.66 1.32 1.32 2 2 C5.58054655 3.07075235 5.58054655 3.07075235 9 2 C9 2.99 9 3.98 9 5 C4.38 5 -0.24 5 -5 5 C-5 3.68 -5 2.36 -5 1 C-2 0 -2 0 0 0 Z " fill="#B7BEC9" transform="translate(285,164)"/>
<path d="M0 0 C1.99954746 -0.04254356 4.00041636 -0.04080783 6 0 C7 1 7 1 7.0625 4.5625 C7.041875 5.696875 7.02125 6.83125 7 8 C6.34 8 5.68 8 5 8 C5 6.02 5 4.04 5 2 C4.01 2 3.02 2 2 2 C2 3.98 2 5.96 2 8 C1.34 8 0.68 8 0 8 C0 5.36 0 2.72 0 0 Z " fill="#192133" transform="translate(231,122)"/>
<path d="M0 0 C5.28 0 10.56 0 16 0 C16 0.66 16 1.32 16 2 C14.35 2 12.7 2 11 2 C10.67 2.66 10.34 3.32 10 4 C10 3.34 10 2.68 10 2 C8.68 2 7.36 2 6 2 C5.67 2.66 5.34 3.32 5 4 C5 3.34 5 2.68 5 2 C3.35 2 1.7 2 0 2 C0 1.34 0 0.68 0 0 Z " fill="#636363" transform="translate(233,226)"/>
<path d="M0 0 C4.875 2.75 4.875 2.75 6 5 C6.33 4.67 6.66 4.34 7 4 C8.84599688 3.60545777 10.70225822 3.25823134 12.5625 2.9375 C13.57441406 2.76089844 14.58632813 2.58429688 15.62890625 2.40234375 C16.41136719 2.26957031 17.19382812 2.13679687 18 2 C14.99284661 5.4485704 12.47718984 5.43017584 8 6 C7.34 6.66 6.68 7.32 6 8 C3.875 7.625 3.875 7.625 2 7 C2.33 5.68 2.66 4.36 3 3 C2.01 2.67 1.02 2.34 0 2 C0 1.34 0 0.68 0 0 Z " fill="#4B4C4C" transform="translate(344,223)"/>
<path d="M0 0 C0.33 0.99 0.66 1.98 1 3 C-2.73486879 3.5745952 -6.21293268 4 -10 4 C-10 2.68 -10 1.36 -10 0 C-6.7169902 -1.6415049 -3.57454967 -0.51888624 0 0 Z " fill="#C3C9D2" transform="translate(273,165)"/>
<path d="M0 0 C2.475 0.99 2.475 0.99 5 2 C5 2.66 5 3.32 5 4 C7.64 4.33 10.28 4.66 13 5 C13 5.33 13 5.66 13 6 C10.89611431 6.05402274 8.79183286 6.09280256 6.6875 6.125 C4.92986328 6.15980469 4.92986328 6.15980469 3.13671875 6.1953125 C0 6 0 6 -3 4 C-2.01 4 -1.02 4 0 4 C0 2.68 0 1.36 0 0 Z " fill="#D8D9DB" transform="translate(113,246)"/>
<path d="M0 0 C1.051875 0.5259375 1.051875 0.5259375 2.125 1.0625 C6.62538688 2.53001746 10.54230756 1.20014796 15 0 C14.67 0.99 14.34 1.98 14 3 C12.07421875 3.73046875 12.07421875 3.73046875 9.6875 4.1875 C8.90761719 4.34605469 8.12773437 4.50460938 7.32421875 4.66796875 C5 5 5 5 1 5 C0.67 3.35 0.34 1.7 0 0 Z " fill="#7F7259" transform="translate(121,215)"/>
<path d="M0 0 C1.3921875 0.2784375 1.3921875 0.2784375 2.8125 0.5625 C6.01343771 1.24123881 6.01343771 1.24123881 9 0 C9.33 1.32 9.66 2.64 10 4 C8 5 8 5 5.5625 4.4375 C2.76814291 3.65853522 2.76814291 3.65853522 0 6 C0 4.02 0 2.04 0 0 Z " fill="#BCC3CD" transform="translate(184,165)"/>
<path d="M0 0 C2.64 0 5.28 0 8 0 C8.33 1.32 8.66 2.64 9 4 C5.7 4 2.4 4 -1 4 C-0.67 2.68 -0.34 1.36 0 0 Z " fill="#C4CAD3" transform="translate(142,165)"/>
<path d="M0 0 C0.66 0.33 1.32 0.66 2 1 C2.99 0.67 3.98 0.34 5 0 C5 1.65 5 3.3 5 5 C1.7 5 -1.6 5 -5 5 C-4 2 -4 2 -2.0625 0.75 C-1.381875 0.5025 -0.70125 0.255 0 0 Z " fill="#B6BEC8" transform="translate(236,147)"/>
<path d="M0 0 C2.31 0.66 4.62 1.32 7 2 C6.67 2.66 6.34 3.32 6 4 C4.35 4 2.7 4 1 4 C1 8.29 1 12.58 1 17 C0.67 17 0.34 17 0 17 C0 11.39 0 5.78 0 0 Z " fill="#636363" transform="translate(231,214)"/>
<path d="M0 0 C1.65 0 3.3 0 5 0 C5.33 1.32 5.66 2.64 6 4 C1.25 5.125 1.25 5.125 -1 4 C-0.67 2.68 -0.34 1.36 0 0 Z " fill="#CACFD7" transform="translate(196,165)"/>
<path d="M0 0 C0.99 0 1.98 0 3 0 C3 3.3 3 6.6 3 10 C2.01 10 1.02 10 0 10 C0 6.7 0 3.4 0 0 Z " fill="#3A4050" transform="translate(209,120)"/>
<path d="M0 0 C2.97 0 5.94 0 9 0 C9.33 0.66 9.66 1.32 10 2 C6.21812119 3.83691257 4.05431692 4.15837626 0 3 C0 2.01 0 1.02 0 0 Z " fill="#929292" transform="translate(233,212)"/>
<path d="M0 0 C1.98 0 3.96 0 6 0 C6 0.66 6 1.32 6 2 C5.01 2 4.02 2 3 2 C3 3.98 3 5.96 3 8 C2.01 8 1.02 8 0 8 C0 5.36 0 2.72 0 0 Z " fill="#343B4B" transform="translate(291,122)"/>
<path d="M0 0 C2.31 0.66 4.62 1.32 7 2 C7 2.99 7 3.98 7 5 C3.7 5 0.4 5 -3 5 C-2 2 -2 2 0 0 Z " fill="#B8BFCA" transform="translate(251,164)"/>
<path d="M0 0 C1.32 0 2.64 0 4 0 C4.625 1.8125 4.625 1.8125 5 4 C4.01 5.485 4.01 5.485 3 7 C1.68 6.67 0.36 6.34 -1 6 C-0.67 5.67 -0.34 5.34 0 5 C0.04063832 3.33382885 0.042721 1.66611905 0 0 Z " fill="#868A94" transform="translate(252,124)"/>
<path d="M0 0 C0.598125 0.268125 1.19625 0.53625 1.8125 0.8125 C2.1425 1.8025 2.4725 2.7925 2.8125 3.8125 C0.1725 3.8125 -2.4675 3.8125 -5.1875 3.8125 C-5.5175 3.1525 -5.8475 2.4925 -6.1875 1.8125 C-3.93528616 0.44508445 -2.66192242 -0.22816478 0 0 Z " fill="#A3C3CC" transform="translate(186.1875,116.1875)"/>
<path d="M0 0 C0 0.99 0 1.98 0 3 C-3.63 3.66 -7.26 4.32 -11 5 C-11 4.34 -11 3.68 -11 3 C-7.37 2.01 -3.74 1.02 0 0 Z " fill="#ACD4CD" transform="translate(135,217)"/>
<path d="M0 0 C2.31 0.33 4.62 0.66 7 1 C6.01 1.33 5.02 1.66 4 2 C4 2.66 4 3.32 4 4 C1.36 4 -1.28 4 -4 4 C-3.67 3.01 -3.34 2.02 -3 1 C-3 1.66 -3 2.32 -3 3 C-2.34 3 -1.68 3 -1 3 C-0.67 2.01 -0.34 1.02 0 0 Z " fill="#C2C8D1" transform="translate(232,165)"/>
<path d="M0 0 C1.32 0 2.64 0 4 0 C4 1.98 4 3.96 4 6 C2.68 6 1.36 6 0 6 C0 4.02 0 2.04 0 0 Z " fill="#F5F6F6" transform="translate(222,122)"/>
<path d="M0 0 C0.33 0.66 0.66 1.32 1 2 C1.99 1.67 2.98 1.34 4 1 C6.33299825 0.96045766 8.66708189 0.95598268 11 1 C9.4375 2.5625 9.4375 2.5625 7 4 C3.25 3.6875 3.25 3.6875 0 3 C0 2.01 0 1.02 0 0 Z " fill="#40839C" transform="translate(123,220)"/>
<path d="M0 0 C0.66 0 1.32 0 2 0 C3.05404945 3.98196457 2.84098656 6.98195309 2 11 C1.34 11 0.68 11 0 11 C0 7.37 0 3.74 0 0 Z " fill="#0F172A" transform="translate(240,119)"/>
<path d="M0 0 C1.32 0.33 2.64 0.66 4 1 C3.67 2.65 3.34 4.3 3 6 C2.01 6 1.02 6 0 6 C0 4.02 0 2.04 0 0 Z " fill="#8D929A" transform="translate(96,245)"/>
<path d="M0 0 C5.445 1.485 5.445 1.485 11 3 C10.67 3.99 10.34 4.98 10 6 C6.7 4.35 3.4 2.7 0 1 C0 0.67 0 0.34 0 0 Z " fill="#ACC3D5" transform="translate(117,221)"/>
<path d="M0 0 C1.134375 0.020625 2.26875 0.04125 3.4375 0.0625 C3.4375 1.3825 3.4375 2.7025 3.4375 4.0625 C1.4575 4.0625 -0.5225 4.0625 -2.5625 4.0625 C-2.5625 3.4025 -2.5625 2.7425 -2.5625 2.0625 C-3.2225 1.7325 -3.8825 1.4025 -4.5625 1.0625 C-3.5625 0.0625 -3.5625 0.0625 0 0 Z " fill="#BEC5CE" transform="translate(332.5625,164.9375)"/>
<path d="M0 0 C0.33 0.99 0.66 1.98 1 3 C1.78375 2.505 2.5675 2.01 3.375 1.5 C6 0 6 0 8 0 C8 1.32 8 2.64 8 4 C5.36 4 2.72 4 0 4 C0 2.68 0 1.36 0 0 Z " fill="#BEC5CE" transform="translate(155,165)"/>
<path d="M0 0 C1.65 0 3.3 0 5 0 C5 0.66 5 1.32 5 2 C4.01 2.495 4.01 2.495 3 3 C2.34444881 5.52733235 2.34444881 5.52733235 2 8 C1.34 8 0.68 8 0 8 C0 5.36 0 2.72 0 0 Z " fill="#1C2436" transform="translate(267,122)"/>
<path d="M0 0 C2.97 0.33 5.94 0.66 9 1 C9 1.66 9 2.32 9 3 C6.03 3 3.06 3 0 3 C0 2.01 0 1.02 0 0 Z " fill="#9BA0A6" transform="translate(322,249)"/>
<path d="M0 0 C0 1.65 0 3.3 0 5 C-1.98 5 -3.96 5 -6 5 C-5.67 3.68 -5.34 2.36 -5 1 C-1.125 0 -1.125 0 0 0 Z " fill="#787E87" transform="translate(137,245)"/>
<path d="M0 0 C0.86625 0.2784375 0.86625 0.2784375 1.75 0.5625 C4.20692525 1.04023546 5.64397534 0.75729364 8 0 C7.34 1.32 6.68 2.64 6 4 C4.35 4 2.7 4 1 4 C0.67 2.68 0.34 1.36 0 0 Z " fill="#5F5F5F" transform="translate(240,216)"/>
<path d="M0 0 C2 2 2 2 2 5 C-0.31 5 -2.62 5 -5 5 C-4.67 3.68 -4.34 2.36 -4 1 C-3.34 1.33 -2.68 1.66 -2 2 C-2.33 2.66 -2.66 3.32 -3 4 C-2.34 3.67 -1.68 3.34 -1 3 C-0.67 2.01 -0.34 1.02 0 0 Z " fill="#1B2335" transform="translate(263,125)"/>
<path d="M0 0 C0.33 0.66 0.66 1.32 1 2 C1.66 2 2.32 2 3 2 C3 3.32 3 4.64 3 6 C1.35 6.66 -0.3 7.32 -2 8 C-1.34 5.36 -0.68 2.72 0 0 Z " fill="#6A6F7B" transform="translate(201,120)"/>
<path d="M0 0 C1.36125 0.12375 1.36125 0.12375 2.75 0.25 C2.75 0.91 2.75 1.57 2.75 2.25 C-0.55 2.91 -3.85 3.57 -7.25 4.25 C-4.83923194 1.28290085 -3.90322061 0.30024774 0 0 Z " fill="#E8EEF3" transform="translate(444.25,197.75)"/>
<path d="M0 0 C0.66 0 1.32 0 2 0 C2.33 1.65 2.66 3.3 3 5 C1.68 5.33 0.36 5.66 -1 6 C-1.042721 4.33388095 -1.04063832 2.66617115 -1 1 C-0.67 0.67 -0.34 0.34 0 0 Z " fill="#C1C7D0" transform="translate(308,165)"/>
<path d="M0 0 C1.65 0 3.3 0 5 0 C5 0.99 5 1.98 5 3 C3.35 3.33 1.7 3.66 0 4 C0 2.68 0 1.36 0 0 Z " fill="#A6B0BD" transform="translate(225,148)"/>
<path d="M0 0 C0.33 0 0.66 0 1 0 C1.1875 2.875 1.1875 2.875 1 6 C0.01 6.66 -0.98 7.32 -2 8 C-2.99 7.34 -3.98 6.68 -5 6 C-4.01 6 -3.02 6 -2 6 C-1.7834375 5.071875 -1.7834375 5.071875 -1.5625 4.125 C-1 2 -1 2 0 0 Z " fill="#434958" transform="translate(228,122)"/>
<path d="M0 0 C2.31 0.33 4.62 0.66 7 1 C7 1.99 7 2.98 7 4 C5.68 4 4.36 4 3 4 C3 3.34 3 2.68 3 2 C2.34 2 1.68 2 1 2 C0.67 2.66 0.34 3.32 0 4 C0 2.68 0 1.36 0 0 Z " fill="#A9B2BF" transform="translate(209,148)"/>
</svg>
